<?xml version="1.0" encoding="us-ascii" standalone="no"?><svg xmlns="http://www.w3.org/2000/svg" xmlns:xlink="http://www.w3.org/1999/xlink" contentStyleType="text/css" height="354px" preserveAspectRatio="none" style="width:1843px;height:354px;background:#FFFFFF;" version="1.1" viewBox="0 0 1843 354" width="1843px" zoomAndPan="magnify"><defs/><g><!--cluster core--><g id="cluster_core"><rect fill="none" height="93" rx="2.5" ry="2.5" style="stroke:#181818;stroke-width:1.0;" width="144" x="502.83" y="251.5"/><rect fill="none" height="10" style="stroke:#181818;stroke-width:1.0;" width="15" x="626.83" y="256.5"/><rect fill="none" height="2" style="stroke:#181818;stroke-width:1.0;" width="4" x="624.83" y="258.5"/><rect fill="none" height="2" style="stroke:#181818;stroke-width:1.0;" width="4" x="624.83" y="262.5"/><text fill="#000000" font-family="sans-serif" font-size="14" font-weight="bold" lengthAdjust="spacing" textLength="32" x="558.83" y="279.0332">core</text></g><!--cluster persistence--><g id="cluster_persistence"><rect fill="none" height="93" rx="2.5" ry="2.5" style="stroke:#181818;stroke-width:1.0;" width="196" x="659.83" y="127.5"/><rect fill="none" height="10" style="stroke:#181818;stroke-width:1.0;" width="15" x="835.83" y="132.5"/><rect fill="none" height="2" style="stroke:#181818;stroke-width:1.0;" width="4" x="833.83" y="134.5"/><rect fill="none" height="2" style="stroke:#181818;stroke-width:1.0;" width="4" x="833.83" y="138.5"/><text fill="#000000" font-family="sans-serif" font-size="14" font-weight="bold" lengthAdjust="spacing" textLength="84" x="715.83" y="155.0332">persistence</text></g><!--cluster jackson--><g id="cluster_jackson"><rect fill="none" height="100" rx="2.5" ry="2.5" style="stroke:#181818;stroke-width:1.0;" width="270" x="670.83" y="248"/><rect fill="none" height="10" style="stroke:#181818;stroke-width:1.0;" width="15" x="920.83" y="253"/><rect fill="none" height="2" style="stroke:#181818;stroke-width:1.0;" width="4" x="918.83" y="255"/><rect fill="none" height="2" style="stroke:#181818;stroke-width:1.0;" width="4" x="918.83" y="259"/><text fill="#000000" font-family="sans-serif" font-size="14" font-weight="bold" lengthAdjust="spacing" textLength="54" x="778.83" y="275.5332">jackson</text></g><!--cluster ui--><g id="cluster_ui"><rect fill="none" height="93" rx="2.5" ry="2.5" style="stroke:#181818;stroke-width:1.0;" width="126" x="292.83" y="7"/><rect fill="none" height="10" style="stroke:#181818;stroke-width:1.0;" width="15" x="398.83" y="12"/><rect fill="none" height="2" style="stroke:#181818;stroke-width:1.0;" width="4" x="396.83" y="14"/><rect fill="none" height="2" style="stroke:#181818;stroke-width:1.0;" width="4" x="396.83" y="18"/><text fill="#000000" font-family="sans-serif" font-size="14" font-weight="bold" lengthAdjust="spacing" textLength="13" x="349.33" y="34.5332">ui</text></g><!--cluster javafx--><g id="cluster_javafx"><rect fill="none" height="100" rx="2.5" ry="2.5" style="stroke:#181818;stroke-width:1.0;" width="301" x="39.83" y="124"/><rect fill="none" height="10" style="stroke:#181818;stroke-width:1.0;" width="15" x="320.83" y="129"/><rect fill="none" height="2" style="stroke:#181818;stroke-width:1.0;" width="4" x="318.83" y="131"/><rect fill="none" height="2" style="stroke:#181818;stroke-width:1.0;" width="4" x="318.83" y="135"/><text fill="#000000" font-family="sans-serif" font-size="14" font-weight="bold" lengthAdjust="spacing" textLength="42" x="169.33" y="151.5332">javafx</text></g><!--cluster java.net--><g id="cluster_java.net"><rect fill="none" height="100" rx="2.5" ry="2.5" style="stroke:#181818;stroke-width:1.0;" width="150" x="364.83" y="124"/><rect fill="none" height="10" style="stroke:#181818;stroke-width:1.0;" width="15" x="494.83" y="129"/><rect fill="none" height="2" style="stroke:#181818;stroke-width:1.0;" width="4" x="492.83" y="131"/><rect fill="none" height="2" style="stroke:#181818;stroke-width:1.0;" width="4" x="492.83" y="135"/><text fill="#000000" font-family="sans-serif" font-size="14" font-weight="bold" lengthAdjust="spacing" textLength="56" x="411.83" y="151.5332">java.net</text></g><!--cluster rest--><g id="cluster_rest"><rect fill="none" height="93" rx="2.5" ry="2.5" style="stroke:#181818;stroke-width:1.0;" width="140" x="1359.83" y="7"/><rect fill="none" height="10" style="stroke:#181818;stroke-width:1.0;" width="15" x="1479.83" y="12"/><rect fill="none" height="2" style="stroke:#181818;stroke-width:1.0;" width="4" x="1477.83" y="14"/><rect fill="none" height="2" style="stroke:#181818;stroke-width:1.0;" width="4" x="1477.83" y="18"/><text fill="#000000" font-family="sans-serif" font-size="14" font-weight="bold" lengthAdjust="spacing" textLength="28" x="1415.83" y="34.5332">rest</text></g><!--cluster spring--><g id="cluster_spring"><rect fill="none" height="100" rx="2.5" ry="2.5" style="stroke:#181818;stroke-width:1.0;" width="922" x="879.83" y="124"/><rect fill="none" height="10" style="stroke:#181818;stroke-width:1.0;" width="15" x="1781.83" y="129"/><rect fill="none" height="2" style="stroke:#181818;stroke-width:1.0;" width="4" x="1779.83" y="131"/><rect fill="none" height="2" style="stroke:#181818;stroke-width:1.0;" width="4" x="1779.83" y="135"/><text fill="#000000" font-family="sans-serif" font-size="14" font-weight="bold" lengthAdjust="spacing" textLength="45" x="1318.33" y="151.5332">spring</text></g><!--entity bank.core--><g id="elem_bank.core"><path d="M521.33,287.5 L604.33,287.5 A3.75,3.75 0 0 1 606.83,290 L613.83,311.1094 L628.33,311.1094 A2.5,2.5 0 0 1 630.83,313.6094 L630.83,325.6094 A2.5,2.5 0 0 1 628.33,328.1094 L521.33,328.1094 A2.5,2.5 0 0 1 518.83,325.6094 L518.83,290 A2.5,2.5 0 0 1 521.33,287.5 " fill="#F1F1F1" style="stroke:#181818;stroke-width:0.5;"/><line style="stroke:#181818;stroke-width:0.5;" x1="518.83" x2="613.83" y1="311.1094" y2="311.1094"/><text fill="#000000" font-family="sans-serif" font-size="14" font-weight="bold" lengthAdjust="spacing" textLength="70" x="528.83" y="305.0332">bank.core</text></g><!--entity bank.persistence--><g id="elem_bank.persistence"><path d="M678.33,163.5 L813.33,163.5 A3.75,3.75 0 0 1 815.83,166 L822.83,187.1094 L837.33,187.1094 A2.5,2.5 0 0 1 839.83,189.6094 L839.83,201.6094 A2.5,2.5 0 0 1 837.33,204.1094 L678.33,204.1094 A2.5,2.5 0 0 1 675.83,201.6094 L675.83,166 A2.5,2.5 0 0 1 678.33,163.5 " fill="#F1F1F1" style="stroke:#181818;stroke-width:0.5;"/><line style="stroke:#181818;stroke-width:0.5;" x1="675.83" x2="822.83" y1="187.1094" y2="187.1094"/><text fill="#000000" font-family="sans-serif" font-size="14" font-weight="bold" lengthAdjust="spacing" textLength="122" x="685.83" y="181.0332">bank.persistence</text></g><!--entity com.fasterxml.jackson.databind--><g id="elem_com.fasterxml.jackson.databind"><rect fill="#F1F1F1" height="47.6094" rx="2.5" ry="2.5" style="stroke:#181818;stroke-width:0.5;" width="237" x="687.33" y="284"/><rect fill="#F1F1F1" height="10" style="stroke:#181818;stroke-width:0.5;" width="15" x="904.33" y="289"/><rect fill="#F1F1F1" height="2" style="stroke:#181818;stroke-width:0.5;" width="4" x="902.33" y="291"/><rect fill="#F1F1F1" height="2" style="stroke:#181818;stroke-width:0.5;" width="4" x="902.33" y="295"/><text fill="#000000" font-family="sans-serif" font-size="14" lengthAdjust="spacing" textLength="197" x="702.33" y="318.5332">com.fasterxml.jackson.databind</text></g><!--entity bank.ui--><g id="elem_bank.ui"><path d="M311.83,43 L375.83,43 A3.75,3.75 0 0 1 378.33,45.5 L385.33,66.6094 L399.83,66.6094 A2.5,2.5 0 0 1 402.33,69.1094 L402.33,81.1094 A2.5,2.5 0 0 1 399.83,83.6094 L311.83,83.6094 A2.5,2.5 0 0 1 309.33,81.1094 L309.33,45.5 A2.5,2.5 0 0 1 311.83,43 " fill="#F1F1F1" style="stroke:#181818;stroke-width:0.5;"/><line style="stroke:#181818;stroke-width:0.5;" x1="309.33" x2="385.33" y1="66.6094" y2="66.6094"/><text fill="#000000" font-family="sans-serif" font-size="14" font-weight="bold" lengthAdjust="spacing" textLength="51" x="319.33" y="60.5332">bank.ui</text></g><!--entity javafx.fxml--><g id="elem_javafx.fxml"><rect fill="#F1F1F1" height="47.6094" rx="2.5" ry="2.5" style="stroke:#181818;stroke-width:0.5;" width="104" x="220.83" y="160"/><rect fill="#F1F1F1" height="10" style="stroke:#181818;stroke-width:0.5;" width="15" x="304.83" y="165"/><rect fill="#F1F1F1" height="2" style="stroke:#181818;stroke-width:0.5;" width="4" x="302.83" y="167"/><rect fill="#F1F1F1" height="2" style="stroke:#181818;stroke-width:0.5;" width="4" x="302.83" y="171"/><text fill="#000000" font-family="sans-serif" font-size="14" lengthAdjust="spacing" textLength="64" x="235.83" y="194.5332">javafx.fxml</text></g><!--entity javafx.controls--><g id="elem_javafx.controls"><rect fill="#F1F1F1" height="47.6094" rx="2.5" ry="2.5" style="stroke:#181818;stroke-width:0.5;" width="130" x="55.83" y="160"/><rect fill="#F1F1F1" height="10" style="stroke:#181818;stroke-width:0.5;" width="15" x="165.83" y="165"/><rect fill="#F1F1F1" height="2" style="stroke:#181818;stroke-width:0.5;" width="4" x="163.83" y="167"/><rect fill="#F1F1F1" height="2" style="stroke:#181818;stroke-width:0.5;" width="4" x="163.83" y="171"/><text fill="#000000" font-family="sans-serif" font-size="14" lengthAdjust="spacing" textLength="90" x="70.83" y="194.5332">javafx.controls</text></g><!--entity java.net.http--><g id="elem_java.net.http"><rect fill="#F1F1F1" height="47.6094" rx="2.5" ry="2.5" style="stroke:#181818;stroke-width:0.5;" width="118" x="380.83" y="160"/><rect fill="#F1F1F1" height="10" style="stroke:#181818;stroke-width:0.5;" width="15" x="478.83" y="165"/><rect fill="#F1F1F1" height="2" style="stroke:#181818;stroke-width:0.5;" width="4" x="476.83" y="167"/><rect fill="#F1F1F1" height="2" style="stroke:#181818;stroke-width:0.5;" width="4" x="476.83" y="171"/><text fill="#000000" font-family="sans-serif" font-size="14" lengthAdjust="spacing" textLength="78" x="395.83" y="194.5332">java.net.http</text></g><!--entity bank.rest--><g id="elem_bank.rest"><path d="M1378.33,43 L1457.33,43 A3.75,3.75 0 0 1 1459.83,45.5 L1466.83,66.6094 L1481.33,66.6094 A2.5,2.5 0 0 1 1483.83,69.1094 L1483.83,81.1094 A2.5,2.5 0 0 1 1481.33,83.6094 L1378.33,83.6094 A2.5,2.5 0 0 1 1375.83,81.1094 L1375.83,45.5 A2.5,2.5 0 0 1 1378.33,43 " fill="#F1F1F1" style="stroke:#181818;stroke-width:0.5;"/><line style="stroke:#181818;stroke-width:0.5;" x1="1375.83" x2="1466.83" y1="66.6094" y2="66.6094"/><text fill="#000000" font-family="sans-serif" font-size="14" font-weight="bold" lengthAdjust="spacing" textLength="66" x="1385.83" y="60.5332">bank.rest</text></g><!--entity spring.web--><g id="elem_spring.web"><rect fill="#F1F1F1" height="47.6094" rx="2.5" ry="2.5" style="stroke:#181818;stroke-width:0.5;" width="108" x="1677.83" y="160"/><rect fill="#F1F1F1" height="10" style="stroke:#181818;stroke-width:0.5;" width="15" x="1765.83" y="165"/><rect fill="#F1F1F1" height="2" style="stroke:#181818;stroke-width:0.5;" width="4" x="1763.83" y="167"/><rect fill="#F1F1F1" height="2" style="stroke:#181818;stroke-width:0.5;" width="4" x="1763.83" y="171"/><text fill="#000000" font-family="sans-serif" font-size="14" lengthAdjust="spacing" textLength="68" x="1692.83" y="194.5332">spring.web</text></g><!--entity spring.beans--><g id="elem_spring.beans"><rect fill="#F1F1F1" height="47.6094" rx="2.5" ry="2.5" style="stroke:#181818;stroke-width:0.5;" width="122" x="1520.83" y="160"/><rect fill="#F1F1F1" height="10" style="stroke:#181818;stroke-width:0.5;" width="15" x="1622.83" y="165"/><rect fill="#F1F1F1" height="2" style="stroke:#181818;stroke-width:0.5;" width="4" x="1620.83" y="167"/><rect fill="#F1F1F1" height="2" style="stroke:#181818;stroke-width:0.5;" width="4" x="1620.83" y="171"/><text fill="#000000" font-family="sans-serif" font-size="14" lengthAdjust="spacing" textLength="82" x="1535.83" y="194.5332">spring.beans</text></g><!--entity spring.boot--><g id="elem_spring.boot"><rect fill="#F1F1F1" height="47.6094" rx="2.5" ry="2.5" style="stroke:#181818;stroke-width:0.5;" width="111" x="1374.33" y="160"/><rect fill="#F1F1F1" height="10" style="stroke:#181818;stroke-width:0.5;" width="15" x="1465.33" y="165"/><rect fill="#F1F1F1" height="2" style="stroke:#181818;stroke-width:0.5;" width="4" x="1463.33" y="167"/><rect fill="#F1F1F1" height="2" style="stroke:#181818;stroke-width:0.5;" width="4" x="1463.33" y="171"/><text fill="#000000" font-family="sans-serif" font-size="14" lengthAdjust="spacing" textLength="71" x="1389.33" y="194.5332">spring.boot</text></g><!--entity spring.context--><g id="elem_spring.context"><rect fill="#F1F1F1" height="47.6094" rx="2.5" ry="2.5" style="stroke:#181818;stroke-width:0.5;" width="128" x="1210.83" y="160"/><rect fill="#F1F1F1" height="10" style="stroke:#181818;stroke-width:0.5;" width="15" x="1318.83" y="165"/><rect fill="#F1F1F1" height="2" style="stroke:#181818;stroke-width:0.5;" width="4" x="1316.83" y="167"/><rect fill="#F1F1F1" height="2" style="stroke:#181818;stroke-width:0.5;" width="4" x="1316.83" y="171"/><text fill="#000000" font-family="sans-serif" font-size="14" lengthAdjust="spacing" textLength="88" x="1225.83" y="194.5332">spring.context</text></g><!--entity spring.webmvc--><g id="elem_spring.webmvc"><rect fill="#F1F1F1" height="47.6094" rx="2.5" ry="2.5" style="stroke:#181818;stroke-width:0.5;" width="133" x="1042.33" y="160"/><rect fill="#F1F1F1" height="10" style="stroke:#181818;stroke-width:0.5;" width="15" x="1155.33" y="165"/><rect fill="#F1F1F1" height="2" style="stroke:#181818;stroke-width:0.5;" width="4" x="1153.33" y="167"/><rect fill="#F1F1F1" height="2" style="stroke:#181818;stroke-width:0.5;" width="4" x="1153.33" y="171"/><text fill="#000000" font-family="sans-serif" font-size="14" lengthAdjust="spacing" textLength="93" x="1057.33" y="194.5332">spring.webmvc</text></g><!--entity spring.core--><g id="elem_spring.core"><rect fill="#F1F1F1" height="47.6094" rx="2.5" ry="2.5" style="stroke:#181818;stroke-width:0.5;" width="111" x="896.33" y="160"/><rect fill="#F1F1F1" height="10" style="stroke:#181818;stroke-width:0.5;" width="15" x="987.33" y="165"/><rect fill="#F1F1F1" height="2" style="stroke:#181818;stroke-width:0.5;" width="4" x="985.33" y="167"/><rect fill="#F1F1F1" height="2" style="stroke:#181818;stroke-width:0.5;" width="4" x="985.33" y="171"/><text fill="#000000" font-family="sans-serif" font-size="14" lengthAdjust="spacing" textLength="71" x="911.33" y="194.5332">spring.core</text></g><!--link bank.persistence to com.fasterxml.jackson.databind--><g id="link_bank.persistence_com.fasterxml.jackson.databind"><path d="M765.55,204.6 C774.03,226.16 785.4428,255.1868 794.4628,278.1068 " fill="none" id="bank.persistence-to-com.fasterxml.jackson.databind" style="stroke:#181818;stroke-width:1.0;stroke-dasharray:7.0,7.0;"/><polygon fill="#181818" points="796.66,283.69,797.0863,273.8504,794.829,279.0373,789.642,276.78,796.66,283.69" style="stroke:#181818;stroke-width:1.0;"/></g><!--link bank.persistence to bank.core--><g id="link_bank.persistence_bank.core"><path d="M726.2,204.51 C709.6,214.88 688.99,227.93 670.83,240 C647.47,255.52 626.2935,270.3081 607.2235,283.8381 " fill="none" id="bank.persistence-to-bank.core" style="stroke:#181818;stroke-width:1.0;stroke-dasharray:7.0,7.0;"/><polygon fill="#181818" points="602.33,287.31,611.9848,285.3645,606.4079,284.4168,607.3556,278.8399,602.33,287.31" style="stroke:#181818;stroke-width:1.0;"/></g><!--link bank.ui to bank.core--><g id="link_bank.ui_bank.core"><path d="M309.22,65.01 C229.88,66.98 73.86,75.98 39.83,116 C6.44,155.28 6,193.1 39.83,232 C70.99,267.83 381.6252,293.4732 512.5952,302.8132 " fill="none" id="bank.ui-to-bank.core" style="stroke:#181818;stroke-width:1.0;stroke-dasharray:7.0,7.0;"/><polygon fill="#181818" points="518.58,303.24,509.8873,298.6099,513.5927,302.8843,509.3183,306.5897,518.58,303.24" style="stroke:#181818;stroke-width:1.0;"/></g><!--link bank.ui to bank.persistence--><g id="link_bank.ui_bank.persistence"><path d="M402.64,73.53 C447.88,82.7 518.16,98.05 577.83,116 C623.5,129.73 668.7379,146.8049 704.6979,161.1649 " fill="none" id="bank.ui-to-bank.persistence" style="stroke:#181818;stroke-width:1.0;stroke-dasharray:7.0,7.0;"/><polygon fill="#181818" points="710.27,163.39,703.3952,156.3375,705.6265,161.5357,700.4284,163.7671,710.27,163.39" style="stroke:#181818;stroke-width:1.0;"/></g><!--link bank.ui to javafx.fxml--><g id="link_bank.ui_javafx.fxml"><path d="M342.13,84.07 C327.58,104.84 308.0314,132.745 292.5714,154.825 " fill="none" id="bank.ui-to-javafx.fxml" style="stroke:#181818;stroke-width:1.0;stroke-dasharray:7.0,7.0;"/><polygon fill="#181818" points="289.13,159.74,297.5687,154.6618,291.9978,155.6442,291.0154,150.0733,289.13,159.74" style="stroke:#181818;stroke-width:1.0;"/></g><!--link bank.ui to javafx.controls--><g id="link_bank.ui_javafx.controls"><path d="M309.18,75.71 C278.16,84.25 237.16,97.67 203.83,116 C182.25,127.87 165.1451,141.4711 149.4151,155.6611 " fill="none" id="bank.ui-to-javafx.controls" style="stroke:#181818;stroke-width:1.0;stroke-dasharray:7.0,7.0;"/><polygon fill="#181818" points="144.96,159.68,154.322,156.6217,148.6726,156.3309,148.9634,150.6815,144.96,159.68" style="stroke:#181818;stroke-width:1.0;"/></g><!--link bank.ui to com.fasterxml.jackson.databind--><g id="link_bank.ui_com.fasterxml.jackson.databind"><path d="M402.51,74.87 C435.18,83.24 479.19,96.81 514.83,116 C587.5,155.13 590.56,187.14 659.83,232 C690.09,251.59 720.6786,267.5484 749.3686,281.2884 " fill="none" id="bank.ui-to-com.fasterxml.jackson.databind" style="stroke:#181818;stroke-width:1.0;stroke-dasharray:7.0,7.0;"/><polygon fill="#181818" points="754.78,283.88,748.3906,276.385,750.2705,281.7203,744.9351,283.6002,754.78,283.88" style="stroke:#181818;stroke-width:1.0;"/></g><!--link bank.ui to java.net.http--><g id="link_bank.ui_java.net.http"><path d="M369.7,84.07 C384.43,104.84 404.2204,132.7649 419.8704,154.8449 " fill="none" id="bank.ui-to-java.net.http" style="stroke:#181818;stroke-width:1.0;stroke-dasharray:7.0,7.0;"/><polygon fill="#181818" points="423.34,159.74,421.399,150.0843,420.4487,155.6607,414.8722,154.7104,423.34,159.74" style="stroke:#181818;stroke-width:1.0;"/></g><!--link bank.rest to bank.core--><g id="link_bank.rest_bank.core"><path d="M1375.75,64.93 C1210.22,66.67 718.2,75.26 659.83,116 C601.35,156.82 583.3985,241.5675 577.8285,281.5175 " fill="none" id="bank.rest-to-bank.core" style="stroke:#181818;stroke-width:1.0;stroke-dasharray:7.0,7.0;"/><polygon fill="#181818" points="577,287.46,582.2045,279.0986,577.6904,282.5079,574.2811,277.9939,577,287.46" style="stroke:#181818;stroke-width:1.0;"/></g><!--link bank.rest to bank.persistence--><g id="link_bank.rest_bank.persistence"><path d="M1375.55,66.78 C1255.64,72.26 971.52,87.86 879.83,116 C845.41,126.56 814.741,144.23 790.931,159.91 " fill="none" id="bank.rest-to-bank.persistence" style="stroke:#181818;stroke-width:1.0;stroke-dasharray:7.0,7.0;"/><polygon fill="#181818" points="785.92,163.21,795.6365,161.6007,790.0958,160.46,791.2365,154.9194,785.92,163.21" style="stroke:#181818;stroke-width:1.0;"/></g><!--link bank.rest to com.fasterxml.jackson.databind--><g id="link_bank.rest_com.fasterxml.jackson.databind"><path d="M1483.88,63.69 C1576.92,63.58 1761.26,69.42 1801.83,116 C1835.7,154.87 1836.89,194.2 1801.83,232 C1743.28,295.13 1182.0099,305.4154 930.6699,306.8654 " fill="none" id="bank.rest-to-com.fasterxml.jackson.databind" style="stroke:#181818;stroke-width:1.0;stroke-dasharray:7.0,7.0;"/><polygon fill="#181818" points="924.67,306.9,933.6929,310.848,929.6699,306.8712,933.6468,302.8481,924.67,306.9" style="stroke:#181818;stroke-width:1.0;"/></g><!--link bank.rest to spring.web--><g id="link_bank.rest_spring.web"><path d="M1484.01,68.39 C1532.7,73.73 1604.94,86.34 1660.83,116 C1681.19,126.8 1695.9678,140.5609 1709.0878,155.2809 " fill="none" id="bank.rest-to-spring.web" style="stroke:#181818;stroke-width:1.0;stroke-dasharray:7.0,7.0;"/><polygon fill="#181818" points="1713.08,159.76,1710.0777,150.3799,1709.7531,156.0274,1704.1056,155.7029,1713.08,159.76" style="stroke:#181818;stroke-width:1.0;"/></g><!--link bank.rest to spring.beans--><g id="link_bank.rest_spring.beans"><path d="M1459.04,84.22 C1472.57,93.58 1488.73,105.08 1502.83,116 C1520.89,129.98 1535.9533,142.6419 1551.1033,155.8219 " fill="none" id="bank.rest-to-spring.beans" style="stroke:#181818;stroke-width:1.0;stroke-dasharray:7.0,7.0;"/><polygon fill="#181818" points="1555.63,159.76,1551.4653,150.835,1551.8577,156.4782,1546.2145,156.8707,1555.63,159.76" style="stroke:#181818;stroke-width:1.0;"/></g><!--link bank.rest to spring.boot--><g id="link_bank.rest_spring.boot"><path d="M1420.07,84.07 C1416.3,104.84 1415.1973,131.7283 1418.5573,153.8083 " fill="none" id="bank.rest-to-spring.boot" style="stroke:#181818;stroke-width:1.0;stroke-dasharray:7.0,7.0;"/><polygon fill="#181818" points="1419.46,159.74,1422.0605,150.2407,1418.7078,154.7969,1414.1515,151.4442,1419.46,159.74" style="stroke:#181818;stroke-width:1.0;"/></g><!--link bank.rest to spring.boot--><g id="link_bank.rest_spring.boot"><path d="M1440.17,84.07 C1444.16,104.84 1445.3351,131.7365 1441.7751,153.8165 " fill="none" id="bank.rest-to-spring.boot-1" style="stroke:#181818;stroke-width:1.0;stroke-dasharray:7.0,7.0;"/><polygon fill="#181818" points="1440.82,159.74,1446.2016,151.4915,1441.6159,154.8037,1438.3036,150.218,1440.82,159.74" style="stroke:#181818;stroke-width:1.0;"/></g><!--link bank.rest to spring.context--><g id="link_bank.rest_spring.context"><path d="M1401.07,84.09 C1387.49,93.52 1371.16,105.12 1356.83,116 C1338.24,130.12 1322.5281,142.8775 1306.7581,156.0275 " fill="none" id="bank.rest-to-spring.context" style="stroke:#181818;stroke-width:1.0;stroke-dasharray:7.0,7.0;"/><polygon fill="#181818" points="1302.15,159.87,1311.6239,157.1783,1305.9901,156.6679,1306.5005,151.0341,1302.15,159.87" style="stroke:#181818;stroke-width:1.0;"/></g><!--link bank.rest to spring.webmvc--><g id="link_bank.rest_spring.webmvc"><path d="M1375.58,69.32 C1326.25,75.3 1252.42,88.33 1193.83,116 C1170.73,126.91 1152.6073,141.0904 1136.5473,155.7804 " fill="none" id="bank.rest-to-spring.webmvc" style="stroke:#181818;stroke-width:1.0;stroke-dasharray:7.0,7.0;"/><polygon fill="#181818" points="1132.12,159.83,1141.4606,156.7071,1135.8094,156.4553,1136.0612,150.8041,1132.12,159.83" style="stroke:#181818;stroke-width:1.0;"/></g><!--SRC=[bL91SiCW33pNh_0Bz8J-1HCvfOa50qhgcKx_NaXS8eCwJJdkQiNkWlLBy8J4e_KHny_X9HXxCaSS9qCdAE3mDGosZWMCoIL6ilsquFQYzpoLF6N1c8yLToumcwo8wtA6RGeEXitaw51sj7j7WDU_PAhc4KVukhWkmyMrrgzcNijOYy6SRsy2ROprnD6VKxyA2BbVLb1uOmurSdQsTzsXicn9IdCANgr9xfb2nPg7NP4kOkAkpGBkIqWXEZhUVa8BmWTE6ZoXeQGIthE6buouyYzNB5UhY-vVlVhM7c2FTqzGwMSAhSCYlKhSy-jKQK1bVZhufsphvni0]--></g></svg>