<?xml version="1.0" encoding="us-ascii" standalone="no"?><svg xmlns="http://www.w3.org/2000/svg" xmlns:xlink="http://www.w3.org/1999/xlink" contentStyleType="text/css" height="1209px" preserveAspectRatio="none" style="width:880px;height:1209px;background:#FFFFFF;" version="1.1" viewBox="0 0 880 1209" width="880px" zoomAndPan="magnify"><defs/><g><!--cluster bank--><g id="cluster_bank"><path d="M8.5,6 L43.5,6 A3.75,3.75 0 0 1 46,8.5 L53,29.6094 L870.5,29.6094 A2.5,2.5 0 0 1 873,32.1094 L873,1199.5 A2.5,2.5 0 0 1 870.5,1202 L8.5,1202 A2.5,2.5 0 0 1 6,1199.5 L6,8.5 A2.5,2.5 0 0 1 8.5,6 " fill="none" style="stroke:#000000;stroke-width:1.5;"/><line style="stroke:#000000;stroke-width:1.5;" x1="6" x2="53" y1="29.6094" y2="29.6094"/><text fill="#000000" font-family="sans-serif" font-size="14" font-weight="bold" lengthAdjust="spacing" textLength="34" x="10" y="22.5332">bank</text></g><!--cluster core--><g id="cluster_core"><path d="M32.5,50 L65.5,50 A3.75,3.75 0 0 1 68,52.5 L75,73.6094 L846.5,73.6094 A2.5,2.5 0 0 1 849,76.1094 L849,1175.5 A2.5,2.5 0 0 1 846.5,1178 L32.5,1178 A2.5,2.5 0 0 1 30,1175.5 L30,52.5 A2.5,2.5 0 0 1 32.5,50 " fill="none" style="stroke:#000000;stroke-width:1.5;"/><line style="stroke:#000000;stroke-width:1.5;" x1="30" x2="75" y1="73.6094" y2="73.6094"/><text fill="#000000" font-family="sans-serif" font-size="14" font-weight="bold" lengthAdjust="spacing" textLength="32" x="34" y="66.5332">core</text></g><!--class Bank--><g id="elem_Bank"><rect codeLine="3" fill="#F1F1F1" height="329.75" id="Bank" rx="2.5" ry="2.5" style="stroke:#181818;stroke-width:0.5;" width="577" x="255.5" y="86"/><ellipse cx="523.75" cy="102" fill="#ADD1B2" rx="11" ry="11" style="stroke:#181818;stroke-width:1.0;"/><path d="M526.5156,97.875 Q526.6719,97.6563 526.8594,97.5469 Q527.0469,97.4375 527.2656,97.4375 Q527.6406,97.4375 527.875,97.7031 Q528.1094,97.9531 528.1094,98.5625 L528.1094,100.0156 Q528.1094,100.625 527.875,100.8906 Q527.6406,101.1563 527.2656,101.1563 Q526.9219,101.1563 526.7188,100.9531 Q526.5156,100.7656 526.4063,100.25 Q526.3594,99.8906 526.1719,99.7031 Q525.8438,99.3281 525.2344,99.1094 Q524.625,98.8906 524,98.8906 Q523.2344,98.8906 522.5938,99.2188 Q521.9688,99.5469 521.4688,100.2969 Q520.9844,101.0469 520.9844,102.0781 L520.9844,103.1719 Q520.9844,104.4063 521.875,105.2344 Q522.7656,106.0469 524.3594,106.0469 Q525.2969,106.0469 525.9531,105.7969 Q526.3438,105.6406 526.7656,105.2031 Q527.0313,104.9375 527.1719,104.8594 Q527.3281,104.7813 527.5313,104.7813 Q527.8594,104.7813 528.1094,105.0469 Q528.375,105.2969 528.375,105.6406 Q528.375,105.9844 528.0313,106.3906 Q527.5313,106.9688 526.7344,107.2969 Q525.6563,107.75 524.3594,107.75 Q522.8438,107.75 521.6406,107.125 Q520.6563,106.625 519.9688,105.5625 Q519.2813,104.4844 519.2813,103.2031 L519.2813,102.0469 Q519.2813,100.7188 519.8906,99.5781 Q520.5156,98.4219 521.6094,97.8125 Q522.7031,97.1875 523.9375,97.1875 Q524.6719,97.1875 525.3125,97.3594 Q525.9688,97.5156 526.5156,97.875 Z " fill="#000000"/><text fill="#000000" font-family="sans-serif" font-size="14" lengthAdjust="spacing" textLength="32" x="544.25" y="107.7285">Bank</text><line style="stroke:#181818;stroke-width:0.5;" x1="256.5" x2="831.5" y1="118" y2="118"/><rect fill="none" height="6" style="stroke:#C82930;stroke-width:1.0;" width="6" x="263.5" y="129.3047"/><text fill="#000000" font-family="sans-serif" font-size="14" lengthAdjust="spacing" textLength="106" x="275.5" y="136.5332">List&lt;User&gt; users</text><line style="stroke:#181818;stroke-width:1.0;stroke-dasharray:1.0,2.0;" x1="256.5" x2="831.5" y1="143.6094" y2="143.6094"/><ellipse cx="266.5" cy="157.9141" fill="#84BE84" rx="3" ry="3" style="stroke:#038048;stroke-width:1.0;"/><text fill="#000000" font-family="sans-serif" font-size="14" lengthAdjust="spacing" textLength="123" x="275.5" y="162.1426">getInstance(): Bank</text><ellipse cx="266.5" cy="175.5234" fill="#84BE84" rx="3" ry="3" style="stroke:#038048;stroke-width:1.0;"/><text fill="#000000" font-family="sans-serif" font-size="14" lengthAdjust="spacing" textLength="368" x="275.5" y="179.752">addUser(ssn: String, name: String, password: String): User</text><ellipse cx="266.5" cy="193.1328" fill="#84BE84" rx="3" ry="3" style="stroke:#038048;stroke-width:1.0;"/><text fill="#000000" font-family="sans-serif" font-size="14" lengthAdjust="spacing" textLength="153" x="275.5" y="197.3613">removeUser(ssn: String)</text><ellipse cx="266.5" cy="210.7422" fill="#84BE84" rx="3" ry="3" style="stroke:#038048;stroke-width:1.0;"/><text fill="#000000" font-family="sans-serif" font-size="14" lengthAdjust="spacing" textLength="175" x="275.5" y="214.9707">setUsers(users: List&lt;User&gt;)</text><ellipse cx="266.5" cy="228.3516" fill="#84BE84" rx="3" ry="3" style="stroke:#038048;stroke-width:1.0;"/><text fill="#000000" font-family="sans-serif" font-size="14" lengthAdjust="spacing" textLength="143" x="275.5" y="232.5801">userCheck(user: User)</text><ellipse cx="266.5" cy="245.9609" fill="#84BE84" rx="3" ry="3" style="stroke:#038048;stroke-width:1.0;"/><text fill="#000000" font-family="sans-serif" font-size="14" lengthAdjust="spacing" textLength="128" x="275.5" y="250.1895">addUser(user: User)</text><ellipse cx="266.5" cy="263.5703" fill="#84BE84" rx="3" ry="3" style="stroke:#038048;stroke-width:1.0;"/><text fill="#000000" font-family="sans-serif" font-size="14" lengthAdjust="spacing" textLength="163" x="275.5" y="267.7988">getUser(ssn: String): User</text><ellipse cx="266.5" cy="281.1797" fill="#84BE84" rx="3" ry="3" style="stroke:#038048;stroke-width:1.0;"/><text fill="#000000" font-family="sans-serif" font-size="14" lengthAdjust="spacing" textLength="267" x="275.5" y="285.4082">addAccount(user: User, account: Account)</text><ellipse cx="266.5" cy="298.7891" fill="#84BE84" rx="3" ry="3" style="stroke:#038048;stroke-width:1.0;"/><text fill="#000000" font-family="sans-serif" font-size="14" lengthAdjust="spacing" textLength="274" x="275.5" y="303.0176">getAccountByNumber(accountnumber: ssn)</text><ellipse cx="266.5" cy="316.3984" fill="#84BE84" rx="3" ry="3" style="stroke:#038048;stroke-width:1.0;"/><text fill="#000000" font-family="sans-serif" font-size="14" lengthAdjust="spacing" textLength="296" x="275.5" y="320.627">verifyCredentials(ssn: String, password: String)</text><ellipse cx="266.5" cy="334.0078" fill="#84BE84" rx="3" ry="3" style="stroke:#038048;stroke-width:1.0;"/><text fill="#000000" font-family="sans-serif" font-size="14" lengthAdjust="spacing" textLength="546" x="275.5" y="338.2363">transfer(user: User, sourceAccount: Account, targetAccount: Account, amount: double)</text><ellipse cx="266.5" cy="351.6172" fill="#84BE84" rx="3" ry="3" style="stroke:#038048;stroke-width:1.0;"/><text fill="#000000" font-family="sans-serif" font-size="14" lengthAdjust="spacing" textLength="551" x="275.5" y="355.8457">payment(user: User, sourceAccount: Account, targetAccount: Account, amount: double)</text><ellipse cx="266.5" cy="369.2266" fill="#84BE84" rx="3" ry="3" style="stroke:#038048;stroke-width:1.0;"/><text fill="#000000" font-family="sans-serif" font-size="14" lengthAdjust="spacing" textLength="344" x="275.5" y="373.4551">deposit(user: User, account: Account, amount: double)</text><ellipse cx="266.5" cy="386.8359" fill="#84BE84" rx="3" ry="3" style="stroke:#038048;stroke-width:1.0;"/><text fill="#000000" font-family="sans-serif" font-size="14" lengthAdjust="spacing" textLength="352" x="275.5" y="391.0645">withdraw(user: User, account: Account, amount: double)</text><text fill="#000000" font-family="sans-serif" font-size="14" lengthAdjust="spacing" textLength="4" x="275.5" y="408.6738">&#160;</text></g><g id="elem_GMN5"><path d="M46,229.5 L46,272.2031 A0,0 0 0 0 46,272.2031 L220,272.2031 A0,0 0 0 0 220,272.2031 L220,255 L255.21,251 L220,247 L220,239.5 L210,229.5 L46,229.5 A0,0 0 0 0 46,229.5 " fill="#FEFFDD" style="stroke:#181818;stroke-width:0.5;"/><path d="M210,229.5 L210,239.5 L220,239.5 L210,229.5 " fill="#FEFFDD" style="stroke:#181818;stroke-width:0.5;"/><text fill="#000000" font-family="sans-serif" font-size="13" lengthAdjust="spacing" textLength="149" x="52" y="247.9951">Singleton class to prevent</text><text fill="#000000" font-family="sans-serif" font-size="13" lengthAdjust="spacing" textLength="137" x="52" y="264.3467">multiple bank instances</text></g><!--class User--><g id="elem_User"><rect codeLine="27" fill="#F1F1F1" height="294.5313" id="User" rx="2.5" ry="2.5" style="stroke:#181818;stroke-width:0.5;" width="436" x="326" y="494"/><ellipse cx="525.25" cy="510" fill="#ADD1B2" rx="11" ry="11" style="stroke:#181818;stroke-width:1.0;"/><path d="M528.0156,505.875 Q528.1719,505.6563 528.3594,505.5469 Q528.5469,505.4375 528.7656,505.4375 Q529.1406,505.4375 529.375,505.7031 Q529.6094,505.9531 529.6094,506.5625 L529.6094,508.0156 Q529.6094,508.625 529.375,508.8906 Q529.1406,509.1563 528.7656,509.1563 Q528.4219,509.1563 528.2188,508.9531 Q528.0156,508.7656 527.9063,508.25 Q527.8594,507.8906 527.6719,507.7031 Q527.3438,507.3281 526.7344,507.1094 Q526.125,506.8906 525.5,506.8906 Q524.7344,506.8906 524.0938,507.2188 Q523.4688,507.5469 522.9688,508.2969 Q522.4844,509.0469 522.4844,510.0781 L522.4844,511.1719 Q522.4844,512.4063 523.375,513.2344 Q524.2656,514.0469 525.8594,514.0469 Q526.7969,514.0469 527.4531,513.7969 Q527.8438,513.6406 528.2656,513.2031 Q528.5313,512.9375 528.6719,512.8594 Q528.8281,512.7813 529.0313,512.7813 Q529.3594,512.7813 529.6094,513.0469 Q529.875,513.2969 529.875,513.6406 Q529.875,513.9844 529.5313,514.3906 Q529.0313,514.9688 528.2344,515.2969 Q527.1563,515.75 525.8594,515.75 Q524.3438,515.75 523.1406,515.125 Q522.1563,514.625 521.4688,513.5625 Q520.7813,512.4844 520.7813,511.2031 L520.7813,510.0469 Q520.7813,508.7188 521.3906,507.5781 Q522.0156,506.4219 523.1094,505.8125 Q524.2031,505.1875 525.4375,505.1875 Q526.1719,505.1875 526.8125,505.3594 Q527.4688,505.5156 528.0156,505.875 Z " fill="#000000"/><text fill="#000000" font-family="sans-serif" font-size="14" lengthAdjust="spacing" textLength="29" x="545.75" y="515.7285">User</text><line style="stroke:#181818;stroke-width:0.5;" x1="327" x2="761" y1="526" y2="526"/><rect fill="none" height="6" style="stroke:#C82930;stroke-width:1.0;" width="6" x="334" y="537.3047"/><text fill="#000000" font-family="sans-serif" font-size="14" lengthAdjust="spacing" textLength="63" x="346" y="544.5332">String ssn</text><rect fill="none" height="6" style="stroke:#C82930;stroke-width:1.0;" width="6" x="334" y="554.9141"/><text fill="#000000" font-family="sans-serif" font-size="14" lengthAdjust="spacing" textLength="76" x="346" y="562.1426">String name</text><rect fill="none" height="6" style="stroke:#C82930;stroke-width:1.0;" width="6" x="334" y="572.5234"/><text fill="#000000" font-family="sans-serif" font-size="14" lengthAdjust="spacing" textLength="101" x="346" y="579.752">String password</text><rect fill="none" height="6" style="stroke:#C82930;stroke-width:1.0;" width="6" x="334" y="590.1328"/><text fill="#000000" font-family="sans-serif" font-size="14" lengthAdjust="spacing" textLength="150" x="346" y="597.3613">List&lt;Account&gt; accounts</text><line style="stroke:#181818;stroke-width:1.0;stroke-dasharray:1.0,2.0;" x1="327" x2="761" y1="604.4375" y2="604.4375"/><ellipse cx="337" cy="618.7422" fill="#84BE84" rx="3" ry="3" style="stroke:#038048;stroke-width:1.0;"/><text fill="#000000" font-family="sans-serif" font-size="14" lengthAdjust="spacing" textLength="307" x="346" y="622.9707">User(ssn: String, name: String, password: String)</text><ellipse cx="337" cy="636.3516" fill="#84BE84" rx="3" ry="3" style="stroke:#038048;stroke-width:1.0;"/><text fill="#000000" font-family="sans-serif" font-size="14" lengthAdjust="spacing" textLength="185" x="346" y="640.5801">getAccounts(): List&lt;Account&gt;</text><ellipse cx="337" cy="653.9609" fill="#84BE84" rx="3" ry="3" style="stroke:#038048;stroke-width:1.0;"/><text fill="#000000" font-family="sans-serif" font-size="14" lengthAdjust="spacing" textLength="99" x="346" y="658.1895">getSsn(): String</text><ellipse cx="337" cy="671.5703" fill="#84BE84" rx="3" ry="3" style="stroke:#038048;stroke-width:1.0;"/><text fill="#000000" font-family="sans-serif" font-size="14" lengthAdjust="spacing" textLength="111" x="346" y="675.7988">getName(): String</text><ellipse cx="337" cy="689.1797" fill="#84BE84" rx="3" ry="3" style="stroke:#038048;stroke-width:1.0;"/><text fill="#000000" font-family="sans-serif" font-size="14" lengthAdjust="spacing" textLength="136" x="346" y="693.4082">getPassword(): String</text><polygon fill="#FFFF44" points="337,701.7891,341,705.7891,337,709.7891,333,705.7891" style="stroke:#B38D22;stroke-width:1.0;"/><text fill="#000000" font-family="sans-serif" font-size="14" lengthAdjust="spacing" textLength="410" x="346" y="711.0176">addAccount(accountType: String, accountName: String): Account</text><polygon fill="#FFFF44" points="337,719.3984,341,723.3984,337,727.3984,333,723.3984" style="stroke:#B38D22;stroke-width:1.0;"/><text fill="#000000" font-family="sans-serif" font-size="14" lengthAdjust="spacing" textLength="217" x="346" y="728.627">removeAccount(account: Account)</text><polygon fill="#FFFF44" points="337,737.0078,341,741.0078,337,745.0078,333,741.0078" style="stroke:#B38D22;stroke-width:1.0;"/><text fill="#000000" font-family="sans-serif" font-size="14" lengthAdjust="spacing" textLength="139" x="346" y="746.2363">ssnCheck(ssn: String)</text><polygon fill="#FFFF44" points="337,754.6172,341,758.6172,337,762.6172,333,758.6172" style="stroke:#B38D22;stroke-width:1.0;"/><text fill="#000000" font-family="sans-serif" font-size="14" lengthAdjust="spacing" textLength="215" x="346" y="763.8457">passwordCheck(password: String)</text><polygon fill="#FFFF44" points="337,772.2266,341,776.2266,337,780.2266,333,776.2266" style="stroke:#B38D22;stroke-width:1.0;"/><text fill="#000000" font-family="sans-serif" font-size="14" lengthAdjust="spacing" textLength="165" x="346" y="781.4551">nameCheck(name: String)</text></g><!--class Account--><g id="elem_Account"><rect codeLine="45" fill="#F1F1F1" height="294.5313" id="Account" rx="2.5" ry="2.5" style="stroke:#181818;stroke-width:0.5;" width="413" x="337.5" y="867"/><ellipse cx="514.25" cy="883" fill="#ADD1B2" rx="11" ry="11" style="stroke:#181818;stroke-width:1.0;"/><path d="M517.0156,878.875 Q517.1719,878.6563 517.3594,878.5469 Q517.5469,878.4375 517.7656,878.4375 Q518.1406,878.4375 518.375,878.7031 Q518.6094,878.9531 518.6094,879.5625 L518.6094,881.0156 Q518.6094,881.625 518.375,881.8906 Q518.1406,882.1563 517.7656,882.1563 Q517.4219,882.1563 517.2188,881.9531 Q517.0156,881.7656 516.9063,881.25 Q516.8594,880.8906 516.6719,880.7031 Q516.3438,880.3281 515.7344,880.1094 Q515.125,879.8906 514.5,879.8906 Q513.7344,879.8906 513.0938,880.2188 Q512.4688,880.5469 511.9688,881.2969 Q511.4844,882.0469 511.4844,883.0781 L511.4844,884.1719 Q511.4844,885.4063 512.375,886.2344 Q513.2656,887.0469 514.8594,887.0469 Q515.7969,887.0469 516.4531,886.7969 Q516.8438,886.6406 517.2656,886.2031 Q517.5313,885.9375 517.6719,885.8594 Q517.8281,885.7813 518.0313,885.7813 Q518.3594,885.7813 518.6094,886.0469 Q518.875,886.2969 518.875,886.6406 Q518.875,886.9844 518.5313,887.3906 Q518.0313,887.9688 517.2344,888.2969 Q516.1563,888.75 514.8594,888.75 Q513.3438,888.75 512.1406,888.125 Q511.1563,887.625 510.4688,886.5625 Q509.7813,885.4844 509.7813,884.2031 L509.7813,883.0469 Q509.7813,881.7188 510.3906,880.5781 Q511.0156,879.4219 512.1094,878.8125 Q513.2031,878.1875 514.4375,878.1875 Q515.1719,878.1875 515.8125,878.3594 Q516.4688,878.5156 517.0156,878.875 Z " fill="#000000"/><text fill="#000000" font-family="sans-serif" font-size="14" lengthAdjust="spacing" textLength="51" x="534.75" y="888.7285">Account</text><line style="stroke:#181818;stroke-width:0.5;" x1="338.5" x2="749.5" y1="899" y2="899"/><rect fill="none" height="6" style="stroke:#C82930;stroke-width:1.0;" width="6" x="345.5" y="910.3047"/><text fill="#000000" font-family="sans-serif" font-size="14" lengthAdjust="spacing" textLength="99" x="357.5" y="917.5332">Double balance</text><rect fill="none" height="6" style="stroke:#C82930;stroke-width:1.0;" width="6" x="345.5" y="927.9141"/><text fill="#000000" font-family="sans-serif" font-size="14" lengthAdjust="spacing" textLength="106" x="357.5" y="935.1426">final String name</text><rect fill="none" height="6" style="stroke:#C82930;stroke-width:1.0;" width="6" x="345.5" y="945.5234"/><text fill="#000000" font-family="sans-serif" font-size="14" lengthAdjust="spacing" textLength="153" x="357.5" y="952.752">final String accountType</text><rect fill="none" height="6" style="stroke:#C82930;stroke-width:1.0;" width="6" x="345.5" y="963.1328"/><text fill="#000000" font-family="sans-serif" font-size="14" lengthAdjust="spacing" textLength="160" x="357.5" y="970.3613">final long accountNumber</text><rect fill="none" height="6" style="stroke:#C82930;stroke-width:1.0;" width="6" x="345.5" y="980.7422"/><text fill="#000000" font-family="sans-serif" font-size="14" lengthAdjust="spacing" textLength="198" x="357.5" y="987.9707">final List&lt;String&gt; accountTypes</text><line style="stroke:#181818;stroke-width:1.0;stroke-dasharray:1.0,2.0;" x1="338.5" x2="749.5" y1="995.0469" y2="995.0469"/><ellipse cx="348.5" cy="1009.3516" fill="#84BE84" rx="3" ry="3" style="stroke:#038048;stroke-width:1.0;"/><text fill="#000000" font-family="sans-serif" font-size="14" lengthAdjust="spacing" textLength="387" x="357.5" y="1013.5801">Account(balance: Double, name: String, accountType: String)</text><ellipse cx="348.5" cy="1026.9609" fill="#84BE84" rx="3" ry="3" style="stroke:#038048;stroke-width:1.0;"/><text fill="#000000" font-family="sans-serif" font-size="14" lengthAdjust="spacing" textLength="165" x="357.5" y="1031.1895">getAccountNumber(): long</text><ellipse cx="348.5" cy="1044.5703" fill="#84BE84" rx="3" ry="3" style="stroke:#038048;stroke-width:1.0;"/><text fill="#000000" font-family="sans-serif" font-size="14" lengthAdjust="spacing" textLength="111" x="357.5" y="1048.7988">getName(): String</text><ellipse cx="348.5" cy="1062.1797" fill="#84BE84" rx="3" ry="3" style="stroke:#038048;stroke-width:1.0;"/><text fill="#000000" font-family="sans-serif" font-size="14" lengthAdjust="spacing" textLength="158" x="357.5" y="1066.4082">getAccountType(): String</text><ellipse cx="348.5" cy="1079.7891" fill="#84BE84" rx="3" ry="3" style="stroke:#038048;stroke-width:1.0;"/><text fill="#000000" font-family="sans-serif" font-size="14" lengthAdjust="spacing" textLength="132" x="357.5" y="1084.0176">getBalance(): double</text><polygon fill="#FFFF44" points="348.5,1092.3984,352.5,1096.3984,348.5,1100.3984,344.5,1096.3984" style="stroke:#B38D22;stroke-width:1.0;"/><text fill="#000000" font-family="sans-serif" font-size="14" lengthAdjust="spacing" textLength="156" x="357.5" y="1101.627">deposit(amount: Double)</text><polygon fill="#FFFF44" points="348.5,1110.0078,352.5,1114.0078,348.5,1118.0078,344.5,1114.0078" style="stroke:#B38D22;stroke-width:1.0;"/><text fill="#000000" font-family="sans-serif" font-size="14" lengthAdjust="spacing" textLength="164" x="357.5" y="1119.2363">withdraw(amount: Double)</text><rect fill="#F24D5C" height="6" style="stroke:#C82930;stroke-width:1.0;" width="6" x="345.5" y="1129.6172"/><text fill="#000000" font-family="sans-serif" font-size="14" lengthAdjust="spacing" textLength="259" x="357.5" y="1136.8457">accountTypeCheck(accountType: String)</text><rect fill="#F24D5C" height="6" style="stroke:#C82930;stroke-width:1.0;" width="6" x="345.5" y="1147.2266"/><text fill="#000000" font-family="sans-serif" font-size="14" lengthAdjust="spacing" textLength="165" x="357.5" y="1154.4551">nameCheck(name: String)</text></g><!--reverse link Bank to User--><g id="link_Bank_User"><path codeLine="64" d="M544,428.2 C544,453.98 544,468.49 544,493.84 " fill="none" id="Bank-backto-User" style="stroke:#181818;stroke-width:1.0;"/><polygon fill="#181818" points="544,416.2,540,422.2,544,428.2,548,422.2,544,416.2" style="stroke:#181818;stroke-width:1.0;"/><text fill="#000000" font-family="sans-serif" font-size="13" lengthAdjust="spacing" textLength="21" x="545" y="460.4951">has</text><text fill="#000000" font-family="sans-serif" font-size="13" lengthAdjust="spacing" textLength="7" x="536.8523" y="437.0147">1</text><text fill="#000000" font-family="sans-serif" font-size="13" lengthAdjust="spacing" textLength="20" x="523.4844" y="483.33">0..*</text></g><!--reverse link User to Account--><g id="link_User_Account"><path codeLine="65" d="M544,801.13 C544,826.65 544,841.2 544,866.72 " fill="none" id="User-backto-Account" style="stroke:#181818;stroke-width:1.0;"/><polygon fill="#181818" points="544,789.13,540,795.13,544,801.13,548,795.13,544,789.13" style="stroke:#181818;stroke-width:1.0;"/><text fill="#000000" font-family="sans-serif" font-size="13" lengthAdjust="spacing" textLength="30" x="545" y="833.4951">owns</text><text fill="#000000" font-family="sans-serif" font-size="13" lengthAdjust="spacing" textLength="7" x="536.8305" y="810.1833">1</text><text fill="#000000" font-family="sans-serif" font-size="13" lengthAdjust="spacing" textLength="22" x="521.4328" y="856.2039">0..3</text></g><!--SRC=[hLN1Zjem4BtdAqR91ROGjUejgf1WzrAfGfLeFy0a0qGaTcGx85JrtsjxdCG9BD9AlI0yppD-CsyUD2m_ioF2dl5pcWk9y2UAyeef1HiJCYU09VmebVxsMw5SGMi-bGccgVdu14VKtxdIZESucsSknyLPKTZxCwLu1ZijItvS06Sr3gV6F78LikWY9jsck7I9jRZWjCBSOGgr1TJCKSa2SeJRyEi9yxExG4Nd8rBJ-94gZfuAo9YqTPwBbkiWSm6COXbuiA_bpvlRjgttfgo_oDqf0_CANRsWB0-tLua5SbsoIesdTJSVbwGbu-emQc81IhGon_M4q08qamEV8Cvg2XIYtLT8XHjsgt7Iul-eMs0ZLFbyT8yphwK-5P9TFveQ_Osuq0WL7ZI8GxUK03ipnGgru40RhWKq4Y-cQt1utLQwR2fo0vH-hrM4l01RiNE6PUATGT9OJSEZNVJmt4avcCcpNtNz19Rwi6ycUwUi4KUFT1TsYbkCqhhWrXI_Z_xqZuoG9BI29_xhrWJSV70R49xtKhaAvEn9aP674ZjDCl34-qdVEy6F9f6uQH4UpcrkjiBBvz_o2hwvjJ6ILrPi5pgKd5LtMewYGVS1M8a18lC7e9E4qbTXVY1zDnPF9lFafXlmOFJJ9V0_FMRubjDphTT3kNjmGrGiG0PpC-vCtNdlhRTjCjZs7bo6r4cZTtfPFfCnSdzDyPSONfPBY3-dwKjCfipWn5JaleRmrxWNFGDnvIhw1m00]--></g></svg>