<?xml version="1.0" encoding="us-ascii" standalone="no"?><svg xmlns="http://www.w3.org/2000/svg" xmlns:xlink="http://www.w3.org/1999/xlink" contentStyleType="text/css" height="766px" preserveAspectRatio="none" style="width:1498px;height:766px;background:#FFFFFF;" version="1.1" viewBox="0 0 1498 766" width="1498px" zoomAndPan="magnify"><defs/><g><line style="stroke:#181818;stroke-width:0.5;stroke-dasharray:5.0,5.0;" x1="22" x2="22" y1="82.6094" y2="683.9922"/><line style="stroke:#181818;stroke-width:0.5;stroke-dasharray:5.0,5.0;" x1="89" x2="89" y1="82.6094" y2="683.9922"/><line style="stroke:#181818;stroke-width:0.5;stroke-dasharray:5.0,5.0;" x1="201" x2="201" y1="82.6094" y2="683.9922"/><line style="stroke:#181818;stroke-width:0.5;stroke-dasharray:5.0,5.0;" x1="316" x2="316" y1="82.6094" y2="683.9922"/><line style="stroke:#181818;stroke-width:0.5;stroke-dasharray:5.0,5.0;" x1="404" x2="404" y1="82.6094" y2="683.9922"/><line style="stroke:#181818;stroke-width:0.5;stroke-dasharray:5.0,5.0;" x1="487" x2="487" y1="82.6094" y2="683.9922"/><line style="stroke:#181818;stroke-width:0.5;stroke-dasharray:5.0,5.0;" x1="580" x2="580" y1="82.6094" y2="683.9922"/><line style="stroke:#181818;stroke-width:0.5;stroke-dasharray:5.0,5.0;" x1="702" x2="702" y1="82.6094" y2="683.9922"/><line style="stroke:#181818;stroke-width:0.5;stroke-dasharray:5.0,5.0;" x1="861.5" x2="861.5" y1="82.6094" y2="683.9922"/><line style="stroke:#181818;stroke-width:0.5;stroke-dasharray:5.0,5.0;" x1="1135.5" x2="1135.5" y1="82.6094" y2="683.9922"/><line style="stroke:#181818;stroke-width:0.5;stroke-dasharray:5.0,5.0;" x1="1294.5" x2="1294.5" y1="82.6094" y2="683.9922"/><line style="stroke:#181818;stroke-width:0.5;stroke-dasharray:5.0,5.0;" x1="1419" x2="1419" y1="82.6094" y2="683.9922"/><line style="stroke:#181818;stroke-width:0.5;stroke-dasharray:5.0,5.0;" x1="1475" x2="1475" y1="82.6094" y2="683.9922"/><text fill="#000000" font-family="sans-serif" font-size="14" lengthAdjust="spacing" textLength="29" x="5" y="79.5332">User</text><ellipse cx="22.5" cy="13.5" fill="#E2E2F0" rx="8" ry="8" style="stroke:#181818;stroke-width:0.5;"/><path d="M22.5,21.5 L22.5,48.5 M9.5,29.5 L35.5,29.5 M22.5,48.5 L9.5,63.5 M22.5,48.5 L35.5,63.5 " fill="none" style="stroke:#181818;stroke-width:0.5;"/><text fill="#000000" font-family="sans-serif" font-size="14" lengthAdjust="spacing" textLength="29" x="5" y="697.5254">User</text><ellipse cx="22.5" cy="709.1016" fill="#E2E2F0" rx="8" ry="8" style="stroke:#181818;stroke-width:0.5;"/><path d="M22.5,717.1016 L22.5,744.1016 M9.5,725.1016 L35.5,725.1016 M22.5,744.1016 L9.5,759.1016 M22.5,744.1016 L35.5,759.1016 " fill="none" style="stroke:#181818;stroke-width:0.5;"/><text fill="#000000" font-family="sans-serif" font-size="14" lengthAdjust="spacing" textLength="72" x="50" y="79.5332">accountList</text><path d="M68.5,37 L68.5,61 M68.5,49 L85.5,49 " fill="none" style="stroke:#181818;stroke-width:0.5;"/><ellipse cx="97.5" cy="49" fill="#E2E2F0" rx="12" ry="12" style="stroke:#181818;stroke-width:0.5;"/><text fill="#000000" font-family="sans-serif" font-size="14" lengthAdjust="spacing" textLength="72" x="50" y="697.5254">accountList</text><path d="M68.5,704.6016 L68.5,728.6016 M68.5,716.6016 L85.5,716.6016 " fill="none" style="stroke:#181818;stroke-width:0.5;"/><ellipse cx="97.5" cy="716.6016" fill="#E2E2F0" rx="12" ry="12" style="stroke:#181818;stroke-width:0.5;"/><text fill="#000000" font-family="sans-serif" font-size="14" lengthAdjust="spacing" textLength="120" x="138" y="79.5332">OverviewController</text><ellipse cx="201" cy="49" fill="#E2E2F0" rx="12" ry="12" style="stroke:#181818;stroke-width:0.5;"/><polygon fill="#181818" points="197,37,203,32,201,37,203,42,197,37" style="stroke:#181818;stroke-width:1.0;"/><text fill="#000000" font-family="sans-serif" font-size="14" lengthAdjust="spacing" textLength="120" x="138" y="697.5254">OverviewController</text><ellipse cx="201" cy="716.6016" fill="#E2E2F0" rx="12" ry="12" style="stroke:#181818;stroke-width:0.5;"/><polygon fill="#181818" points="197,704.6016,203,699.6016,201,704.6016,203,709.6016,197,704.6016" style="stroke:#181818;stroke-width:1.0;"/><text fill="#000000" font-family="sans-serif" font-size="14" lengthAdjust="spacing" textLength="78" x="274" y="79.5332">amountField</text><path d="M295.5,37 L295.5,61 M295.5,49 L312.5,49 " fill="none" style="stroke:#181818;stroke-width:0.5;"/><ellipse cx="324.5" cy="49" fill="#E2E2F0" rx="12" ry="12" style="stroke:#181818;stroke-width:0.5;"/><text fill="#000000" font-family="sans-serif" font-size="14" lengthAdjust="spacing" textLength="78" x="274" y="697.5254">amountField</text><path d="M295.5,704.6016 L295.5,728.6016 M295.5,716.6016 L312.5,716.6016 " fill="none" style="stroke:#181818;stroke-width:0.5;"/><ellipse cx="324.5" cy="716.6016" fill="#E2E2F0" rx="12" ry="12" style="stroke:#181818;stroke-width:0.5;"/><text fill="#000000" font-family="sans-serif" font-size="14" lengthAdjust="spacing" textLength="66" x="368" y="79.5332">sourceBox</text><path d="M383.5,37 L383.5,61 M383.5,49 L400.5,49 " fill="none" style="stroke:#181818;stroke-width:0.5;"/><ellipse cx="412.5" cy="49" fill="#E2E2F0" rx="12" ry="12" style="stroke:#181818;stroke-width:0.5;"/><text fill="#000000" font-family="sans-serif" font-size="14" lengthAdjust="spacing" textLength="66" x="368" y="697.5254">sourceBox</text><path d="M383.5,704.6016 L383.5,728.6016 M383.5,716.6016 L400.5,716.6016 " fill="none" style="stroke:#181818;stroke-width:0.5;"/><ellipse cx="412.5" cy="716.6016" fill="#E2E2F0" rx="12" ry="12" style="stroke:#181818;stroke-width:0.5;"/><text fill="#000000" font-family="sans-serif" font-size="14" lengthAdjust="spacing" textLength="68" x="450" y="79.5332">targetField</text><path d="M466.5,37 L466.5,61 M466.5,49 L483.5,49 " fill="none" style="stroke:#181818;stroke-width:0.5;"/><ellipse cx="495.5" cy="49" fill="#E2E2F0" rx="12" ry="12" style="stroke:#181818;stroke-width:0.5;"/><text fill="#000000" font-family="sans-serif" font-size="14" lengthAdjust="spacing" textLength="68" x="450" y="697.5254">targetField</text><path d="M466.5,704.6016 L466.5,728.6016 M466.5,716.6016 L483.5,716.6016 " fill="none" style="stroke:#181818;stroke-width:0.5;"/><ellipse cx="495.5" cy="716.6016" fill="#E2E2F0" rx="12" ry="12" style="stroke:#181818;stroke-width:0.5;"/><text fill="#000000" font-family="sans-serif" font-size="14" lengthAdjust="spacing" textLength="87" x="534" y="79.5332">confirmButton</text><path d="M560,37 L560,61 M560,49 L577,49 " fill="none" style="stroke:#181818;stroke-width:0.5;"/><ellipse cx="589" cy="49" fill="#E2E2F0" rx="12" ry="12" style="stroke:#181818;stroke-width:0.5;"/><text fill="#000000" font-family="sans-serif" font-size="14" lengthAdjust="spacing" textLength="87" x="534" y="697.5254">confirmButton</text><path d="M560,704.6016 L560,728.6016 M560,716.6016 L577,716.6016 " fill="none" style="stroke:#181818;stroke-width:0.5;"/><ellipse cx="589" cy="716.6016" fill="#E2E2F0" rx="12" ry="12" style="stroke:#181818;stroke-width:0.5;"/><text fill="#000000" font-family="sans-serif" font-size="14" lengthAdjust="spacing" textLength="117" x="641" y="79.5332">PaymentController</text><ellipse cx="702.5" cy="49" fill="#E2E2F0" rx="12" ry="12" style="stroke:#181818;stroke-width:0.5;"/><polygon fill="#181818" points="698.5,37,704.5,32,702.5,37,704.5,42,698.5,37" style="stroke:#181818;stroke-width:1.0;"/><text fill="#000000" font-family="sans-serif" font-size="14" lengthAdjust="spacing" textLength="117" x="641" y="697.5254">PaymentController</text><ellipse cx="702.5" cy="716.6016" fill="#E2E2F0" rx="12" ry="12" style="stroke:#181818;stroke-width:0.5;"/><polygon fill="#181818" points="698.5,704.6016,704.5,699.6016,702.5,704.6016,704.5,709.6016,698.5,704.6016" style="stroke:#181818;stroke-width:1.0;"/><text fill="#000000" font-family="sans-serif" font-size="14" lengthAdjust="spacing" textLength="74" x="821.5" y="79.5332">UserAccess</text><ellipse cx="861.5" cy="49" fill="#E2E2F0" rx="12" ry="12" style="stroke:#181818;stroke-width:0.5;"/><polygon fill="#181818" points="857.5,37,863.5,32,861.5,37,863.5,42,857.5,37" style="stroke:#181818;stroke-width:1.0;"/><text fill="#000000" font-family="sans-serif" font-size="14" lengthAdjust="spacing" textLength="74" x="821.5" y="697.5254">UserAccess</text><ellipse cx="861.5" cy="716.6016" fill="#E2E2F0" rx="12" ry="12" style="stroke:#181818;stroke-width:0.5;"/><polygon fill="#181818" points="857.5,704.6016,863.5,699.6016,861.5,704.6016,863.5,709.6016,857.5,704.6016" style="stroke:#181818;stroke-width:1.0;"/><text fill="#000000" font-family="sans-serif" font-size="14" lengthAdjust="spacing" textLength="50" x="1107.5" y="79.5332">RestAPI</text><path d="M1115,37 L1115,61 M1115,49 L1132,49 " fill="none" style="stroke:#181818;stroke-width:0.5;"/><ellipse cx="1144" cy="49" fill="#E2E2F0" rx="12" ry="12" style="stroke:#181818;stroke-width:0.5;"/><text fill="#000000" font-family="sans-serif" font-size="14" lengthAdjust="spacing" textLength="50" x="1107.5" y="697.5254">RestAPI</text><path d="M1115,704.6016 L1115,728.6016 M1115,716.6016 L1132,716.6016 " fill="none" style="stroke:#181818;stroke-width:0.5;"/><ellipse cx="1144" cy="716.6016" fill="#E2E2F0" rx="12" ry="12" style="stroke:#181818;stroke-width:0.5;"/><text fill="#000000" font-family="sans-serif" font-size="14" lengthAdjust="spacing" textLength="32" x="1275.5" y="79.5332">Bank</text><ellipse cx="1294.5" cy="49" fill="#E2E2F0" rx="12" ry="12" style="stroke:#181818;stroke-width:0.5;"/><line style="stroke:#181818;stroke-width:0.5;" x1="1282.5" x2="1306.5" y1="63" y2="63"/><text fill="#000000" font-family="sans-serif" font-size="14" lengthAdjust="spacing" textLength="32" x="1275.5" y="697.5254">Bank</text><ellipse cx="1294.5" cy="716.6016" fill="#E2E2F0" rx="12" ry="12" style="stroke:#181818;stroke-width:0.5;"/><line style="stroke:#181818;stroke-width:0.5;" x1="1282.5" x2="1306.5" y1="730.6016" y2="730.6016"/><text fill="#000000" font-family="sans-serif" font-size="14" lengthAdjust="spacing" textLength="43" x="1395" y="79.5332">source</text><ellipse cx="1419.5" cy="49" fill="#E2E2F0" rx="12" ry="12" style="stroke:#181818;stroke-width:0.5;"/><line style="stroke:#181818;stroke-width:0.5;" x1="1407.5" x2="1431.5" y1="63" y2="63"/><text fill="#000000" font-family="sans-serif" font-size="14" lengthAdjust="spacing" textLength="43" x="1395" y="697.5254">source</text><ellipse cx="1419.5" cy="716.6016" fill="#E2E2F0" rx="12" ry="12" style="stroke:#181818;stroke-width:0.5;"/><line style="stroke:#181818;stroke-width:0.5;" x1="1407.5" x2="1431.5" y1="730.6016" y2="730.6016"/><text fill="#000000" font-family="sans-serif" font-size="14" lengthAdjust="spacing" textLength="37" x="1454" y="79.5332">target</text><ellipse cx="1475.5" cy="49" fill="#E2E2F0" rx="12" ry="12" style="stroke:#181818;stroke-width:0.5;"/><line style="stroke:#181818;stroke-width:0.5;" x1="1463.5" x2="1487.5" y1="63" y2="63"/><text fill="#000000" font-family="sans-serif" font-size="14" lengthAdjust="spacing" textLength="37" x="1454" y="697.5254">target</text><ellipse cx="1475.5" cy="716.6016" fill="#E2E2F0" rx="12" ry="12" style="stroke:#181818;stroke-width:0.5;"/><line style="stroke:#181818;stroke-width:0.5;" x1="1463.5" x2="1487.5" y1="730.6016" y2="730.6016"/><polygon fill="#181818" points="392,110.9609,402,114.9609,392,118.9609,396,114.9609" style="stroke:#181818;stroke-width:1.0;"/><line style="stroke:#181818;stroke-width:1.0;" x1="22.5" x2="398" y1="114.9609" y2="114.9609"/><text fill="#000000" font-family="sans-serif" font-size="13" lengthAdjust="spacing" textLength="85" x="29.5" y="110.1045">selects source</text><polygon fill="#181818" points="475,141.3125,485,145.3125,475,149.3125,479,145.3125" style="stroke:#181818;stroke-width:1.0;"/><line style="stroke:#181818;stroke-width:1.0;" x1="22.5" x2="481" y1="145.3125" y2="145.3125"/><text fill="#000000" font-family="sans-serif" font-size="13" lengthAdjust="spacing" textLength="72" x="29.5" y="140.4561">inputs target</text><polygon fill="#181818" points="304,171.6641,314,175.6641,304,179.6641,308,175.6641" style="stroke:#181818;stroke-width:1.0;"/><line style="stroke:#181818;stroke-width:1.0;" x1="22.5" x2="310" y1="175.6641" y2="175.6641"/><text fill="#000000" font-family="sans-serif" font-size="13" lengthAdjust="spacing" textLength="82" x="29.5" y="170.8076">inputs amount</text><polygon fill="#181818" points="568.5,202.0156,578.5,206.0156,568.5,210.0156,572.5,206.0156" style="stroke:#181818;stroke-width:1.0;"/><line style="stroke:#181818;stroke-width:1.0;" x1="22.5" x2="574.5" y1="206.0156" y2="206.0156"/><text fill="#000000" font-family="sans-serif" font-size="13" lengthAdjust="spacing" textLength="34" x="29.5" y="201.1592">clicks</text><polygon fill="#181818" points="690.5,232.3672,700.5,236.3672,690.5,240.3672,694.5,236.3672" style="stroke:#181818;stroke-width:1.0;"/><line style="stroke:#181818;stroke-width:1.0;" x1="580.5" x2="696.5" y1="236.3672" y2="236.3672"/><text fill="#000000" font-family="sans-serif" font-size="13" lengthAdjust="spacing" textLength="98" x="587.5" y="231.5107">handlePayment()</text><polygon fill="#181818" points="415,262.7188,405,266.7188,415,270.7188,411,266.7188" style="stroke:#181818;stroke-width:1.0;"/><line style="stroke:#181818;stroke-width:1.0;" x1="409" x2="701.5" y1="266.7188" y2="266.7188"/><text fill="#000000" font-family="sans-serif" font-size="13" lengthAdjust="spacing" textLength="59" x="421" y="261.8623">getValue()</text><polygon fill="#181818" points="498,293.0703,488,297.0703,498,301.0703,494,297.0703" style="stroke:#181818;stroke-width:1.0;"/><line style="stroke:#181818;stroke-width:1.0;" x1="492" x2="701.5" y1="297.0703" y2="297.0703"/><text fill="#000000" font-family="sans-serif" font-size="13" lengthAdjust="spacing" textLength="51" x="504" y="292.2139">getText()</text><polygon fill="#181818" points="327,323.4219,317,327.4219,327,331.4219,323,327.4219" style="stroke:#181818;stroke-width:1.0;"/><line style="stroke:#181818;stroke-width:1.0;" x1="321" x2="701.5" y1="327.4219" y2="327.4219"/><text fill="#000000" font-family="sans-serif" font-size="13" lengthAdjust="spacing" textLength="51" x="333" y="322.5654">getText()</text><polygon fill="#181818" points="849.5,370.125,859.5,374.125,849.5,378.125,853.5,374.125" style="stroke:#181818;stroke-width:1.0;"/><line style="stroke:#181818;stroke-width:1.0;" x1="702.5" x2="855.5" y1="374.125" y2="374.125"/><text fill="#000000" font-family="sans-serif" font-size="13" lengthAdjust="spacing" textLength="102" x="709.5" y="352.917">paymentRequest(</text><text fill="#000000" font-family="sans-serif" font-size="13" lengthAdjust="spacing" textLength="135" x="709.5" y="369.2686">source, target, amount)</text><polygon fill="#181818" points="1123.5,433.1797,1133.5,437.1797,1123.5,441.1797,1127.5,437.1797" style="stroke:#181818;stroke-width:1.0;"/><line style="stroke:#181818;stroke-width:1.0;" x1="861.5" x2="1129.5" y1="437.1797" y2="437.1797"/><text fill="#000000" font-family="sans-serif" font-size="13" lengthAdjust="spacing" textLength="197" x="868.5" y="399.6201">POST bank/users/{user}/accounts</text><text fill="#000000" font-family="sans-serif" font-size="13" lengthAdjust="spacing" textLength="238" x="868.5" y="415.9717">/{source}/payment?password={password}</text><text fill="#000000" font-family="sans-serif" font-size="13" lengthAdjust="spacing" textLength="250" x="868.5" y="432.3232">&amp;targetAccount={target}&amp;amount={amount}</text><polygon fill="#181818" points="1282.5,479.8828,1292.5,483.8828,1282.5,487.8828,1286.5,483.8828" style="stroke:#181818;stroke-width:1.0;"/><line style="stroke:#181818;stroke-width:1.0;" x1="1135.5" x2="1288.5" y1="483.8828" y2="483.8828"/><text fill="#000000" font-family="sans-serif" font-size="13" lengthAdjust="spacing" textLength="83" x="1142.5" y="462.6748">payment(user,</text><text fill="#000000" font-family="sans-serif" font-size="13" lengthAdjust="spacing" textLength="135" x="1142.5" y="479.0264">source, target, amount)</text><polygon fill="#181818" points="1407.5,510.2344,1417.5,514.2344,1407.5,518.2344,1411.5,514.2344" style="stroke:#181818;stroke-width:1.0;"/><line style="stroke:#181818;stroke-width:1.0;" x1="1294.5" x2="1413.5" y1="514.2344" y2="514.2344"/><text fill="#000000" font-family="sans-serif" font-size="13" lengthAdjust="spacing" textLength="101" x="1301.5" y="509.3779">withdraw(amount)</text><polygon fill="#181818" points="1463.5,540.5859,1473.5,544.5859,1463.5,548.5859,1467.5,544.5859" style="stroke:#181818;stroke-width:1.0;"/><line style="stroke:#181818;stroke-width:1.0;" x1="1294.5" x2="1469.5" y1="544.5859" y2="544.5859"/><text fill="#000000" font-family="sans-serif" font-size="13" lengthAdjust="spacing" textLength="93" x="1301.5" y="539.7295">deposit(amount)</text><polygon fill="#181818" points="872.5,570.9375,862.5,574.9375,872.5,578.9375,868.5,574.9375" style="stroke:#181818;stroke-width:1.0;"/><line style="stroke:#181818;stroke-width:1.0;" x1="866.5" x2="1134.5" y1="574.9375" y2="574.9375"/><text fill="#000000" font-family="sans-serif" font-size="13" lengthAdjust="spacing" textLength="94" x="878.5" y="570.0811">HTTP Response</text><polygon fill="#181818" points="713.5,601.2891,703.5,605.2891,713.5,609.2891,709.5,605.2891" style="stroke:#181818;stroke-width:1.0;"/><line style="stroke:#181818;stroke-width:1.0;" x1="707.5" x2="860.5" y1="605.2891" y2="605.2891"/><text fill="#000000" font-family="sans-serif" font-size="13" lengthAdjust="spacing" textLength="75" x="719.5" y="600.4326">updates user</text><polygon fill="#181818" points="212,631.6406,202,635.6406,212,639.6406,208,635.6406" style="stroke:#181818;stroke-width:1.0;"/><line style="stroke:#181818;stroke-width:1.0;" x1="206" x2="701.5" y1="635.6406" y2="635.6406"/><text fill="#000000" font-family="sans-serif" font-size="13" lengthAdjust="spacing" textLength="47" x="218" y="630.7842">update()</text><polygon fill="#181818" points="100,661.9922,90,665.9922,100,669.9922,96,665.9922" style="stroke:#181818;stroke-width:1.0;"/><line style="stroke:#181818;stroke-width:1.0;" x1="94" x2="200" y1="665.9922" y2="665.9922"/><text fill="#000000" font-family="sans-serif" font-size="13" lengthAdjust="spacing" textLength="60" x="106" y="661.1357">update list</text><!--SRC=[XPJBQiCm44Nt-WgjYWCftXVIaXHA2uMOrEqg6qMUDYAEv4fo7XZ_UqV8jcmdeIkzpiozev7Dk5MQVXhGPADAcJ5zfenpdDftOIpXIbgjSheyW3u8E3xxTJxWzmv_4P1dOTEeKdDOg5FOiap_m9X3WM-XzulIMYKxkOITzo1jJwqzSLRdd8Cn8SSAZ9qdRmGZX3tJ1PExTkvjj2llW12NXDu_1fFqWHh8WLlJHhH8ppH2GXObCasUbkbTG63yPiSCwaIAvuBl3273VGGlIaTuosIMGtCIJSWbCoe6tNsnl8HRxB0gdAPmkfbuMDu_SEWFieKdLl1ROekYjVGUfut-j4az8RqepD7q4nCaou-KRh2VSOc4YIitr77pGirQnfLFMSUDrbF1Z3agdSsgTbQlvPqNdFkuMUMNzPtNdrL-h4chZ2RSA-egY9pkbDukmD6X2UZyAEmsq-mOZGaVYKG6XJB2Ta1FUt29hscQk2ifb3GmkgbhZwKiCcR1K6VvUeykF-Ok3DjwvTGzWl1Jw62Qu-eF]--></g></svg>