<?xml version="1.0" encoding="us-ascii" standalone="no"?><svg xmlns="http://www.w3.org/2000/svg" xmlns:xlink="http://www.w3.org/1999/xlink" contentStyleType="text/css" height="1044px" preserveAspectRatio="none" style="width:1591px;height:1044px;background:#FFFFFF;" version="1.1" viewBox="0 0 1591 1044" width="1591px" zoomAndPan="magnify"><defs/><g><rect fill="none" height="353.0547" style="stroke:#000000;stroke-width:1.5;" width="1257" x="10" y="592.2891"/><line style="stroke:#181818;stroke-width:0.5;stroke-dasharray:5.0,5.0;" x1="37" x2="37" y1="82.6094" y2="962.3438"/><line style="stroke:#181818;stroke-width:0.5;stroke-dasharray:5.0,5.0;" x1="179.5" x2="179.5" y1="82.6094" y2="962.3438"/><line style="stroke:#181818;stroke-width:0.5;stroke-dasharray:5.0,5.0;" x1="267.5" x2="267.5" y1="82.6094" y2="962.3438"/><line style="stroke:#181818;stroke-width:0.5;stroke-dasharray:5.0,5.0;" x1="352.5" x2="352.5" y1="82.6094" y2="962.3438"/><line style="stroke:#181818;stroke-width:0.5;stroke-dasharray:5.0,5.0;" x1="435.5" x2="435.5" y1="82.6094" y2="962.3438"/><line style="stroke:#181818;stroke-width:0.5;stroke-dasharray:5.0,5.0;" x1="524.5" x2="524.5" y1="82.6094" y2="962.3438"/><line style="stroke:#181818;stroke-width:0.5;stroke-dasharray:5.0,5.0;" x1="622.5" x2="622.5" y1="82.6094" y2="962.3438"/><line style="stroke:#181818;stroke-width:0.5;stroke-dasharray:5.0,5.0;" x1="742.5" x2="742.5" y1="82.6094" y2="962.3438"/><line style="stroke:#181818;stroke-width:0.5;stroke-dasharray:5.0,5.0;" x1="876.5" x2="876.5" y1="82.6094" y2="962.3438"/><line style="stroke:#181818;stroke-width:0.5;stroke-dasharray:5.0,5.0;" x1="1036" x2="1036" y1="82.6094" y2="962.3438"/><line style="stroke:#181818;stroke-width:0.5;stroke-dasharray:5.0,5.0;" x1="1229" x2="1229" y1="82.6094" y2="962.3438"/><line style="stroke:#181818;stroke-width:0.5;stroke-dasharray:5.0,5.0;" x1="1388" x2="1388" y1="82.6094" y2="962.3438"/><line style="stroke:#181818;stroke-width:0.5;stroke-dasharray:5.0,5.0;" x1="1512.5" x2="1512.5" y1="82.6094" y2="962.3438"/><line style="stroke:#181818;stroke-width:0.5;stroke-dasharray:5.0,5.0;" x1="1568.5" x2="1568.5" y1="82.6094" y2="962.3438"/><text fill="#000000" font-family="sans-serif" font-size="14" lengthAdjust="spacing" textLength="29" x="20" y="79.5332">User</text><ellipse cx="37.5" cy="13.5" fill="#E2E2F0" rx="8" ry="8" style="stroke:#181818;stroke-width:0.5;"/><path d="M37.5,21.5 L37.5,48.5 M24.5,29.5 L50.5,29.5 M37.5,48.5 L24.5,63.5 M37.5,48.5 L50.5,63.5 " fill="none" style="stroke:#181818;stroke-width:0.5;"/><text fill="#000000" font-family="sans-serif" font-size="14" lengthAdjust="spacing" textLength="29" x="20" y="975.877">User</text><ellipse cx="37.5" cy="987.4531" fill="#E2E2F0" rx="8" ry="8" style="stroke:#181818;stroke-width:0.5;"/><path d="M37.5,995.4531 L37.5,1022.4531 M24.5,1003.4531 L50.5,1003.4531 M37.5,1022.4531 L24.5,1037.4531 M37.5,1022.4531 L50.5,1037.4531 " fill="none" style="stroke:#181818;stroke-width:0.5;"/><text fill="#000000" font-family="sans-serif" font-size="14" lengthAdjust="spacing" textLength="72" x="140.5" y="79.5332">errorButton</text><path d="M159,37 L159,61 M159,49 L176,49 " fill="none" style="stroke:#181818;stroke-width:0.5;"/><ellipse cx="188" cy="49" fill="#E2E2F0" rx="12" ry="12" style="stroke:#181818;stroke-width:0.5;"/><text fill="#000000" font-family="sans-serif" font-size="14" lengthAdjust="spacing" textLength="72" x="140.5" y="975.877">errorButton</text><path d="M159,982.9531 L159,1006.9531 M159,994.9531 L176,994.9531 " fill="none" style="stroke:#181818;stroke-width:0.5;"/><ellipse cx="188" cy="994.9531" fill="#E2E2F0" rx="12" ry="12" style="stroke:#181818;stroke-width:0.5;"/><text fill="#000000" font-family="sans-serif" font-size="14" lengthAdjust="spacing" textLength="72" x="228.5" y="79.5332">accountList</text><path d="M247,37 L247,61 M247,49 L264,49 " fill="none" style="stroke:#181818;stroke-width:0.5;"/><ellipse cx="276" cy="49" fill="#E2E2F0" rx="12" ry="12" style="stroke:#181818;stroke-width:0.5;"/><text fill="#000000" font-family="sans-serif" font-size="14" lengthAdjust="spacing" textLength="72" x="228.5" y="975.877">accountList</text><path d="M247,982.9531 L247,1006.9531 M247,994.9531 L264,994.9531 " fill="none" style="stroke:#181818;stroke-width:0.5;"/><ellipse cx="276" cy="994.9531" fill="#E2E2F0" rx="12" ry="12" style="stroke:#181818;stroke-width:0.5;"/><text fill="#000000" font-family="sans-serif" font-size="14" lengthAdjust="spacing" textLength="66" x="316.5" y="79.5332">sourceBox</text><path d="M332,37 L332,61 M332,49 L349,49 " fill="none" style="stroke:#181818;stroke-width:0.5;"/><ellipse cx="361" cy="49" fill="#E2E2F0" rx="12" ry="12" style="stroke:#181818;stroke-width:0.5;"/><text fill="#000000" font-family="sans-serif" font-size="14" lengthAdjust="spacing" textLength="66" x="316.5" y="975.877">sourceBox</text><path d="M332,982.9531 L332,1006.9531 M332,994.9531 L349,994.9531 " fill="none" style="stroke:#181818;stroke-width:0.5;"/><ellipse cx="361" cy="994.9531" fill="#E2E2F0" rx="12" ry="12" style="stroke:#181818;stroke-width:0.5;"/><text fill="#000000" font-family="sans-serif" font-size="14" lengthAdjust="spacing" textLength="68" x="398.5" y="79.5332">targetField</text><path d="M415,37 L415,61 M415,49 L432,49 " fill="none" style="stroke:#181818;stroke-width:0.5;"/><ellipse cx="444" cy="49" fill="#E2E2F0" rx="12" ry="12" style="stroke:#181818;stroke-width:0.5;"/><text fill="#000000" font-family="sans-serif" font-size="14" lengthAdjust="spacing" textLength="68" x="398.5" y="975.877">targetField</text><path d="M415,982.9531 L415,1006.9531 M415,994.9531 L432,994.9531 " fill="none" style="stroke:#181818;stroke-width:0.5;"/><ellipse cx="444" cy="994.9531" fill="#E2E2F0" rx="12" ry="12" style="stroke:#181818;stroke-width:0.5;"/><text fill="#000000" font-family="sans-serif" font-size="14" lengthAdjust="spacing" textLength="78" x="482.5" y="79.5332">amountField</text><path d="M504,37 L504,61 M504,49 L521,49 " fill="none" style="stroke:#181818;stroke-width:0.5;"/><ellipse cx="533" cy="49" fill="#E2E2F0" rx="12" ry="12" style="stroke:#181818;stroke-width:0.5;"/><text fill="#000000" font-family="sans-serif" font-size="14" lengthAdjust="spacing" textLength="78" x="482.5" y="975.877">amountField</text><path d="M504,982.9531 L504,1006.9531 M504,994.9531 L521,994.9531 " fill="none" style="stroke:#181818;stroke-width:0.5;"/><ellipse cx="533" cy="994.9531" fill="#E2E2F0" rx="12" ry="12" style="stroke:#181818;stroke-width:0.5;"/><text fill="#000000" font-family="sans-serif" font-size="14" lengthAdjust="spacing" textLength="87" x="576.5" y="79.5332">confirmButton</text><path d="M602.5,37 L602.5,61 M602.5,49 L619.5,49 " fill="none" style="stroke:#181818;stroke-width:0.5;"/><ellipse cx="631.5" cy="49" fill="#E2E2F0" rx="12" ry="12" style="stroke:#181818;stroke-width:0.5;"/><text fill="#000000" font-family="sans-serif" font-size="14" lengthAdjust="spacing" textLength="87" x="576.5" y="975.877">confirmButton</text><path d="M602.5,982.9531 L602.5,1006.9531 M602.5,994.9531 L619.5,994.9531 " fill="none" style="stroke:#181818;stroke-width:0.5;"/><ellipse cx="631.5" cy="994.9531" fill="#E2E2F0" rx="12" ry="12" style="stroke:#181818;stroke-width:0.5;"/><text fill="#000000" font-family="sans-serif" font-size="14" lengthAdjust="spacing" textLength="120" x="679.5" y="79.5332">OverviewController</text><ellipse cx="742.5" cy="49" fill="#E2E2F0" rx="12" ry="12" style="stroke:#181818;stroke-width:0.5;"/><polygon fill="#181818" points="738.5,37,744.5,32,742.5,37,744.5,42,738.5,37" style="stroke:#181818;stroke-width:1.0;"/><text fill="#000000" font-family="sans-serif" font-size="14" lengthAdjust="spacing" textLength="120" x="679.5" y="975.877">OverviewController</text><ellipse cx="742.5" cy="994.9531" fill="#E2E2F0" rx="12" ry="12" style="stroke:#181818;stroke-width:0.5;"/><polygon fill="#181818" points="738.5,982.9531,744.5,977.9531,742.5,982.9531,744.5,987.9531,738.5,982.9531" style="stroke:#181818;stroke-width:1.0;"/><text fill="#000000" font-family="sans-serif" font-size="14" lengthAdjust="spacing" textLength="117" x="815.5" y="79.5332">PaymentController</text><ellipse cx="877" cy="49" fill="#E2E2F0" rx="12" ry="12" style="stroke:#181818;stroke-width:0.5;"/><polygon fill="#181818" points="873,37,879,32,877,37,879,42,873,37" style="stroke:#181818;stroke-width:1.0;"/><text fill="#000000" font-family="sans-serif" font-size="14" lengthAdjust="spacing" textLength="117" x="815.5" y="975.877">PaymentController</text><ellipse cx="877" cy="994.9531" fill="#E2E2F0" rx="12" ry="12" style="stroke:#181818;stroke-width:0.5;"/><polygon fill="#181818" points="873,982.9531,879,977.9531,877,982.9531,879,987.9531,873,982.9531" style="stroke:#181818;stroke-width:1.0;"/><text fill="#000000" font-family="sans-serif" font-size="14" lengthAdjust="spacing" textLength="74" x="996" y="79.5332">UserAccess</text><ellipse cx="1036" cy="49" fill="#E2E2F0" rx="12" ry="12" style="stroke:#181818;stroke-width:0.5;"/><polygon fill="#181818" points="1032,37,1038,32,1036,37,1038,42,1032,37" style="stroke:#181818;stroke-width:1.0;"/><text fill="#000000" font-family="sans-serif" font-size="14" lengthAdjust="spacing" textLength="74" x="996" y="975.877">UserAccess</text><ellipse cx="1036" cy="994.9531" fill="#E2E2F0" rx="12" ry="12" style="stroke:#181818;stroke-width:0.5;"/><polygon fill="#181818" points="1032,982.9531,1038,977.9531,1036,982.9531,1038,987.9531,1032,982.9531" style="stroke:#181818;stroke-width:1.0;"/><text fill="#000000" font-family="sans-serif" font-size="14" lengthAdjust="spacing" textLength="50" x="1201" y="79.5332">RestAPI</text><path d="M1208.5,37 L1208.5,61 M1208.5,49 L1225.5,49 " fill="none" style="stroke:#181818;stroke-width:0.5;"/><ellipse cx="1237.5" cy="49" fill="#E2E2F0" rx="12" ry="12" style="stroke:#181818;stroke-width:0.5;"/><text fill="#000000" font-family="sans-serif" font-size="14" lengthAdjust="spacing" textLength="50" x="1201" y="975.877">RestAPI</text><path d="M1208.5,982.9531 L1208.5,1006.9531 M1208.5,994.9531 L1225.5,994.9531 " fill="none" style="stroke:#181818;stroke-width:0.5;"/><ellipse cx="1237.5" cy="994.9531" fill="#E2E2F0" rx="12" ry="12" style="stroke:#181818;stroke-width:0.5;"/><text fill="#000000" font-family="sans-serif" font-size="14" lengthAdjust="spacing" textLength="32" x="1369" y="79.5332">Bank</text><ellipse cx="1388" cy="49" fill="#E2E2F0" rx="12" ry="12" style="stroke:#181818;stroke-width:0.5;"/><line style="stroke:#181818;stroke-width:0.5;" x1="1376" x2="1400" y1="63" y2="63"/><text fill="#000000" font-family="sans-serif" font-size="14" lengthAdjust="spacing" textLength="32" x="1369" y="975.877">Bank</text><ellipse cx="1388" cy="994.9531" fill="#E2E2F0" rx="12" ry="12" style="stroke:#181818;stroke-width:0.5;"/><line style="stroke:#181818;stroke-width:0.5;" x1="1376" x2="1400" y1="1008.9531" y2="1008.9531"/><text fill="#000000" font-family="sans-serif" font-size="14" lengthAdjust="spacing" textLength="43" x="1488.5" y="79.5332">source</text><ellipse cx="1513" cy="49" fill="#E2E2F0" rx="12" ry="12" style="stroke:#181818;stroke-width:0.5;"/><line style="stroke:#181818;stroke-width:0.5;" x1="1501" x2="1525" y1="63" y2="63"/><text fill="#000000" font-family="sans-serif" font-size="14" lengthAdjust="spacing" textLength="43" x="1488.5" y="975.877">source</text><ellipse cx="1513" cy="994.9531" fill="#E2E2F0" rx="12" ry="12" style="stroke:#181818;stroke-width:0.5;"/><line style="stroke:#181818;stroke-width:0.5;" x1="1501" x2="1525" y1="1008.9531" y2="1008.9531"/><text fill="#000000" font-family="sans-serif" font-size="14" lengthAdjust="spacing" textLength="37" x="1547.5" y="79.5332">target</text><ellipse cx="1569" cy="49" fill="#E2E2F0" rx="12" ry="12" style="stroke:#181818;stroke-width:0.5;"/><line style="stroke:#181818;stroke-width:0.5;" x1="1557" x2="1581" y1="63" y2="63"/><text fill="#000000" font-family="sans-serif" font-size="14" lengthAdjust="spacing" textLength="37" x="1547.5" y="975.877">target</text><ellipse cx="1569" cy="994.9531" fill="#E2E2F0" rx="12" ry="12" style="stroke:#181818;stroke-width:0.5;"/><line style="stroke:#181818;stroke-width:0.5;" x1="1557" x2="1581" y1="1008.9531" y2="1008.9531"/><polygon fill="#181818" points="340.5,110.9609,350.5,114.9609,340.5,118.9609,344.5,114.9609" style="stroke:#181818;stroke-width:1.0;"/><line style="stroke:#181818;stroke-width:1.0;" x1="37.5" x2="346.5" y1="114.9609" y2="114.9609"/><text fill="#000000" font-family="sans-serif" font-size="13" lengthAdjust="spacing" textLength="85" x="44.5" y="110.1045">selects source</text><polygon fill="#181818" points="423.5,141.3125,433.5,145.3125,423.5,149.3125,427.5,145.3125" style="stroke:#181818;stroke-width:1.0;"/><line style="stroke:#181818;stroke-width:1.0;" x1="37.5" x2="429.5" y1="145.3125" y2="145.3125"/><text fill="#000000" font-family="sans-serif" font-size="13" lengthAdjust="spacing" textLength="72" x="44.5" y="140.4561">inputs target</text><polygon fill="#181818" points="512.5,171.6641,522.5,175.6641,512.5,179.6641,516.5,175.6641" style="stroke:#181818;stroke-width:1.0;"/><line style="stroke:#181818;stroke-width:1.0;" x1="37.5" x2="518.5" y1="175.6641" y2="175.6641"/><text fill="#000000" font-family="sans-serif" font-size="13" lengthAdjust="spacing" textLength="82" x="44.5" y="170.8076">inputs amount</text><polygon fill="#181818" points="611,202.0156,621,206.0156,611,210.0156,615,206.0156" style="stroke:#181818;stroke-width:1.0;"/><line style="stroke:#181818;stroke-width:1.0;" x1="37.5" x2="617" y1="206.0156" y2="206.0156"/><text fill="#000000" font-family="sans-serif" font-size="13" lengthAdjust="spacing" textLength="34" x="44.5" y="201.1592">clicks</text><polygon fill="#181818" points="865,232.3672,875,236.3672,865,240.3672,869,236.3672" style="stroke:#181818;stroke-width:1.0;"/><line style="stroke:#181818;stroke-width:1.0;" x1="623" x2="871" y1="236.3672" y2="236.3672"/><text fill="#000000" font-family="sans-serif" font-size="13" lengthAdjust="spacing" textLength="98" x="630" y="231.5107">handlePayment()</text><polygon fill="#181818" points="363.5,262.7188,353.5,266.7188,363.5,270.7188,359.5,266.7188" style="stroke:#181818;stroke-width:1.0;"/><line style="stroke:#181818;stroke-width:1.0;" x1="357.5" x2="876" y1="266.7188" y2="266.7188"/><text fill="#000000" font-family="sans-serif" font-size="13" lengthAdjust="spacing" textLength="59" x="369.5" y="261.8623">getValue()</text><polygon fill="#181818" points="446.5,293.0703,436.5,297.0703,446.5,301.0703,442.5,297.0703" style="stroke:#181818;stroke-width:1.0;"/><line style="stroke:#181818;stroke-width:1.0;" x1="440.5" x2="876" y1="297.0703" y2="297.0703"/><text fill="#000000" font-family="sans-serif" font-size="13" lengthAdjust="spacing" textLength="51" x="452.5" y="292.2139">getText()</text><polygon fill="#181818" points="535.5,323.4219,525.5,327.4219,535.5,331.4219,531.5,327.4219" style="stroke:#181818;stroke-width:1.0;"/><line style="stroke:#181818;stroke-width:1.0;" x1="529.5" x2="876" y1="327.4219" y2="327.4219"/><text fill="#000000" font-family="sans-serif" font-size="13" lengthAdjust="spacing" textLength="51" x="541.5" y="322.5654">getText()</text><polygon fill="#181818" points="1024,370.125,1034,374.125,1024,378.125,1028,374.125" style="stroke:#181818;stroke-width:1.0;"/><line style="stroke:#181818;stroke-width:1.0;" x1="877" x2="1030" y1="374.125" y2="374.125"/><text fill="#000000" font-family="sans-serif" font-size="13" lengthAdjust="spacing" textLength="102" x="884" y="352.917">paymentRequest(</text><text fill="#000000" font-family="sans-serif" font-size="13" lengthAdjust="spacing" textLength="135" x="884" y="369.2686">source, target, amount)</text><polygon fill="#181818" points="1217,465.8828,1227,469.8828,1217,473.8828,1221,469.8828" style="stroke:#181818;stroke-width:1.0;"/><line style="stroke:#181818;stroke-width:1.0;" x1="1036" x2="1223" y1="469.8828" y2="469.8828"/><text fill="#000000" font-family="sans-serif" font-size="13" lengthAdjust="spacing" textLength="140" x="1043" y="399.6201">POST bank/users/{user}</text><text fill="#000000" font-family="sans-serif" font-size="13" lengthAdjust="spacing" textLength="169" x="1043" y="415.9717">/accounts/{source}/payment?</text><text fill="#000000" font-family="sans-serif" font-size="13" lengthAdjust="spacing" textLength="126" x="1043" y="432.3232">password={password}</text><text fill="#000000" font-family="sans-serif" font-size="13" lengthAdjust="spacing" textLength="139" x="1043" y="448.6748">&amp;targetAccount={target}</text><text fill="#000000" font-family="sans-serif" font-size="13" lengthAdjust="spacing" textLength="111" x="1043" y="465.0264">&amp;amount={amount}</text><polygon fill="#181818" points="1376,512.5859,1386,516.5859,1376,520.5859,1380,516.5859" style="stroke:#181818;stroke-width:1.0;"/><line style="stroke:#181818;stroke-width:1.0;" x1="1229" x2="1382" y1="516.5859" y2="516.5859"/><text fill="#000000" font-family="sans-serif" font-size="13" lengthAdjust="spacing" textLength="83" x="1236" y="495.3779">payment(user,</text><text fill="#000000" font-family="sans-serif" font-size="13" lengthAdjust="spacing" textLength="135" x="1236" y="511.7295">source, target, amount)</text><polygon fill="#181818" points="1501,542.9375,1511,546.9375,1501,550.9375,1505,546.9375" style="stroke:#181818;stroke-width:1.0;"/><line style="stroke:#181818;stroke-width:1.0;" x1="1388" x2="1507" y1="546.9375" y2="546.9375"/><text fill="#000000" font-family="sans-serif" font-size="13" lengthAdjust="spacing" textLength="101" x="1395" y="542.0811">withdraw(amount)</text><polygon fill="#181818" points="1557,573.2891,1567,577.2891,1557,581.2891,1561,577.2891" style="stroke:#181818;stroke-width:1.0;"/><line style="stroke:#181818;stroke-width:1.0;" x1="1388" x2="1563" y1="577.2891" y2="577.2891"/><text fill="#000000" font-family="sans-serif" font-size="13" lengthAdjust="spacing" textLength="93" x="1395" y="572.4326">deposit(amount)</text><path d="M10,592.2891 L71,592.2891 L71,600.6406 L61,610.6406 L10,610.6406 L10,592.2891 " fill="#EEEEEE" style="stroke:#000000;stroke-width:1.5;"/><rect fill="none" height="353.0547" style="stroke:#000000;stroke-width:1.5;" width="1257" x="10" y="592.2891"/><text fill="#000000" font-family="sans-serif" font-size="13" font-weight="bold" lengthAdjust="spacing" textLength="16" x="25" y="606.7842">alt</text><text fill="#000000" font-family="sans-serif" font-size="11" font-weight="bold" lengthAdjust="spacing" textLength="138" x="86" y="605.708">[Failed payment request]</text><polygon fill="#181818" points="1047,645.3438,1037,649.3438,1047,653.3438,1043,649.3438" style="stroke:#181818;stroke-width:1.0;"/><line style="stroke:#181818;stroke-width:1.0;" x1="1041" x2="1228" y1="649.3438" y2="649.3438"/><text fill="#000000" font-family="sans-serif" font-size="13" lengthAdjust="spacing" textLength="128" x="1053" y="628.1357">Response not 200 OK</text><text fill="#000000" font-family="sans-serif" font-size="13" lengthAdjust="spacing" textLength="132" x="1053" y="644.4873">when exception thrown</text><line style="stroke:#181818;stroke-width:1.0;" x1="877" x2="919" y1="679.6953" y2="679.6953"/><line style="stroke:#181818;stroke-width:1.0;" x1="919" x2="919" y1="679.6953" y2="692.6953"/><line style="stroke:#181818;stroke-width:1.0;" x1="878" x2="919" y1="692.6953" y2="692.6953"/><polygon fill="#181818" points="888,688.6953,878,692.6953,888,696.6953,884,692.6953" style="stroke:#181818;stroke-width:1.0;"/><text fill="#000000" font-family="sans-serif" font-size="13" lengthAdjust="spacing" textLength="66" x="884" y="674.8389">showError()</text><polygon fill="#181818" points="190.5,719.0469,180.5,723.0469,190.5,727.0469,186.5,723.0469" style="stroke:#181818;stroke-width:1.0;"/><line style="stroke:#181818;stroke-width:1.0;" x1="184.5" x2="876" y1="723.0469" y2="723.0469"/><text fill="#000000" font-family="sans-serif" font-size="13" lengthAdjust="spacing" textLength="104" x="196.5" y="718.1904">setText(message)</text><polygon fill="#181818" points="190.5,749.3984,180.5,753.3984,190.5,757.3984,186.5,753.3984" style="stroke:#181818;stroke-width:1.0;"/><line style="stroke:#181818;stroke-width:1.0;" x1="184.5" x2="876" y1="753.3984" y2="753.3984"/><text fill="#000000" font-family="sans-serif" font-size="13" lengthAdjust="spacing" textLength="87" x="196.5" y="748.542">setVisible(true)</text><polygon fill="#181818" points="48.5,779.75,38.5,783.75,48.5,787.75,44.5,783.75" style="stroke:#181818;stroke-width:1.0;"/><line style="stroke:#181818;stroke-width:1.0;" x1="42.5" x2="178.5" y1="783.75" y2="783.75"/><text fill="#000000" font-family="sans-serif" font-size="13" lengthAdjust="spacing" textLength="118" x="54.5" y="778.8936">views error message</text><line style="stroke:#000000;stroke-width:1.0;stroke-dasharray:2.0,2.0;" x1="10" x2="1267" y1="792.75" y2="792.75"/><text fill="#000000" font-family="sans-serif" font-size="11" font-weight="bold" lengthAdjust="spacing" textLength="167" x="15" y="804.1689">[Successful payment request]</text><polygon fill="#181818" points="1047,842.2891,1037,846.2891,1047,850.2891,1043,846.2891" style="stroke:#181818;stroke-width:1.0;"/><line style="stroke:#181818;stroke-width:1.0;" x1="1041" x2="1228" y1="846.2891" y2="846.2891"/><text fill="#000000" font-family="sans-serif" font-size="13" lengthAdjust="spacing" textLength="106" x="1053" y="825.0811">Response 200 OK</text><text fill="#000000" font-family="sans-serif" font-size="13" lengthAdjust="spacing" textLength="150" x="1053" y="841.4326">when no exception thrown</text><polygon fill="#181818" points="753.5,872.6406,743.5,876.6406,753.5,880.6406,749.5,876.6406" style="stroke:#181818;stroke-width:1.0;"/><line style="stroke:#181818;stroke-width:1.0;" x1="747.5" x2="876" y1="876.6406" y2="876.6406"/><text fill="#000000" font-family="sans-serif" font-size="13" lengthAdjust="spacing" textLength="47" x="759.5" y="871.7842">update()</text><polygon fill="#181818" points="278.5,902.9922,268.5,906.9922,278.5,910.9922,274.5,906.9922" style="stroke:#181818;stroke-width:1.0;"/><line style="stroke:#181818;stroke-width:1.0;" x1="272.5" x2="741.5" y1="906.9922" y2="906.9922"/><text fill="#000000" font-family="sans-serif" font-size="13" lengthAdjust="spacing" textLength="60" x="284.5" y="902.1357">update list</text><polygon fill="#181818" points="48.5,933.3438,38.5,937.3438,48.5,941.3438,44.5,937.3438" style="stroke:#181818;stroke-width:1.0;"/><line style="stroke:#181818;stroke-width:1.0;" x1="42.5" x2="266.5" y1="937.3438" y2="937.3438"/><text fill="#000000" font-family="sans-serif" font-size="13" lengthAdjust="spacing" textLength="102" x="54.5" y="932.4873">views updated list</text><!--SRC=[dLHDQnin4BthL-XKDk3Yq6F1BNP9eBHWawGv-I9Bawo8B6traRKn_kyTHLfhrn-KP2yhZTwRcJSZ3UFUMFh7WIKh4xHWTal1McDdmNkZYv5nZal_MpfVZCu4os5cDiNacNq6Voj1YHvv7Rb7HcxqaxJh70XttXf5vwzWNoMqFz9UOMBTqO9jrw3zcPEO_vHpSAwulmFdfukV11dIR-cCwPTkdTBkTYbZGg8J-lbR4KM_KWSAk7STeuFqH298wYOW9llfC3tD1PEC1yoW18ZYIl8NHyZGZi0JwGYkcHOAyabrHKunHs8mkqUc0bp23bNXyW4s5nqFvVq7NFg3s2OXxk1lm1PLIvro7ENue-pwYlHOw2Ft4nqivlSFT8Nz70T4kF4k_lPBFSvt52t9vNwSOtrVweOvrneh9hjkXOnFAUGqyIQxj8q7AOV9Blttf8kEYSIRT51HnTWZUbb4H9T6OFQjzBMmhAsE4Oc9206DST8V08GfJs-PL22wiDIcwX6ANo-tGQ7HtXZjW6hZwPVhQph_jTHj3Ph2XaFZ9TujNrlJwZStPpjtOiGtKPls9eu8xFP5Nc-6n5UKRiSQysBFy0xQetHofQ3oDcHQ3z49HgbnOhXqHdCK0WgbtuUtQZm5zR7I3SgcpJigTph8q6ze1FEG2tS64HzM6RG70bKo9zm_FPQViAA0SSA9Vm00]--></g></svg>