<?xml version="1.0" encoding="UTF-8" standalone="no"?><svg xmlns="http://www.w3.org/2000/svg" xmlns:xlink="http://www.w3.org/1999/xlink" contentScriptType="application/ecmascript" contentStyleType="text/css" height="1013px" preserveAspectRatio="none" style="width:1745px;height:1013px;" version="1.1" viewBox="0 0 1745 1013" width="1745px" zoomAndPan="magnify"><defs><filter height="300%" id="f124wx76p7he9" width="300%" x="-1" y="-1"><feGaussianBlur result="blurOut" stdDeviation="2.0"/><feColorMatrix in="blurOut" result="blurOut2" type="matrix" values="0 0 0 0 0 0 0 0 0 0 0 0 0 0 0 0 0 0 .4 0"/><feOffset dx="4.0" dy="4.0" in="blurOut2" result="blurOut3"/><feBlend in="SourceGraphic" in2="blurOut3" mode="normal"/></filter></defs><g><rect fill="#FFFFFF" filter="url(#f124wx76p7he9)" height="337.3984" style="stroke:#000000;stroke-width:2.0;" width="1372" x="10" y="574.8203"/><rect fill="#FFFFFF" height="146.4688" style="stroke:none;stroke-width:1.0;" width="1372" x="10" y="765.75"/><line style="stroke:#A80036;stroke-width:1.0;stroke-dasharray:5.0,5.0;" x1="39" x2="39" y1="88.2969" y2="929.2188"/><line style="stroke:#A80036;stroke-width:1.0;stroke-dasharray:5.0,5.0;" x1="195" x2="195" y1="88.2969" y2="929.2188"/><line style="stroke:#A80036;stroke-width:1.0;stroke-dasharray:5.0,5.0;" x1="290" x2="290" y1="88.2969" y2="929.2188"/><line style="stroke:#A80036;stroke-width:1.0;stroke-dasharray:5.0,5.0;" x1="383" x2="383" y1="88.2969" y2="929.2188"/><line style="stroke:#A80036;stroke-width:1.0;stroke-dasharray:5.0,5.0;" x1="472" x2="472" y1="88.2969" y2="929.2188"/><line style="stroke:#A80036;stroke-width:1.0;stroke-dasharray:5.0,5.0;" x1="567" x2="567" y1="88.2969" y2="929.2188"/><line style="stroke:#A80036;stroke-width:1.0;stroke-dasharray:5.0,5.0;" x1="675" x2="675" y1="88.2969" y2="929.2188"/><line style="stroke:#A80036;stroke-width:1.0;stroke-dasharray:5.0,5.0;" x1="804" x2="804" y1="88.2969" y2="929.2188"/><line style="stroke:#A80036;stroke-width:1.0;stroke-dasharray:5.0,5.0;" x1="948" x2="948" y1="88.2969" y2="929.2188"/><line style="stroke:#A80036;stroke-width:1.0;stroke-dasharray:5.0,5.0;" x1="1125.5" x2="1125.5" y1="88.2969" y2="929.2188"/><line style="stroke:#A80036;stroke-width:1.0;stroke-dasharray:5.0,5.0;" x1="1342" x2="1342" y1="88.2969" y2="929.2188"/><line style="stroke:#A80036;stroke-width:1.0;stroke-dasharray:5.0,5.0;" x1="1519" x2="1519" y1="88.2969" y2="929.2188"/><line style="stroke:#A80036;stroke-width:1.0;stroke-dasharray:5.0,5.0;" x1="1658.5" x2="1658.5" y1="88.2969" y2="929.2188"/><line style="stroke:#A80036;stroke-width:1.0;stroke-dasharray:5.0,5.0;" x1="1718.5" x2="1718.5" y1="88.2969" y2="929.2188"/><text fill="#000000" font-family="sans-serif" font-size="14" lengthAdjust="spacing" textLength="32" x="20" y="84.9951">User</text><ellipse cx="39" cy="15" fill="#FEFECE" filter="url(#f124wx76p7he9)" rx="8" ry="8" style="stroke:#A80036;stroke-width:2.0;"/><path d="M39,23 L39,50 M26,31 L52,31 M39,50 L26,65 M39,50 L52,65 " fill="none" filter="url(#f124wx76p7he9)" style="stroke:#A80036;stroke-width:2.0;"/><text fill="#000000" font-family="sans-serif" font-size="14" lengthAdjust="spacing" textLength="32" x="20" y="941.2139">User</text><ellipse cx="39" cy="954.5156" fill="#FEFECE" filter="url(#f124wx76p7he9)" rx="8" ry="8" style="stroke:#A80036;stroke-width:2.0;"/><path d="M39,962.5156 L39,989.5156 M26,970.5156 L52,970.5156 M39,989.5156 L26,1004.5156 M39,989.5156 L52,1004.5156 " fill="none" filter="url(#f124wx76p7he9)" style="stroke:#A80036;stroke-width:2.0;"/><text fill="#000000" font-family="sans-serif" font-size="14" lengthAdjust="spacing" textLength="80" x="152" y="84.9951">errorButton</text><path d="M174.5,44 L174.5,68 M174.5,56 L191.5,56 " fill="none" filter="url(#f124wx76p7he9)" style="stroke:#A80036;stroke-width:2.0;"/><ellipse cx="203.5" cy="56" fill="#FEFECE" filter="url(#f124wx76p7he9)" rx="12" ry="12" style="stroke:#A80036;stroke-width:2.0;"/><text fill="#000000" font-family="sans-serif" font-size="14" lengthAdjust="spacing" textLength="80" x="152" y="941.2139">errorButton</text><path d="M174.5,948.5156 L174.5,972.5156 M174.5,960.5156 L191.5,960.5156 " fill="none" filter="url(#f124wx76p7he9)" style="stroke:#A80036;stroke-width:2.0;"/><ellipse cx="203.5" cy="960.5156" fill="#FEFECE" filter="url(#f124wx76p7he9)" rx="12" ry="12" style="stroke:#A80036;stroke-width:2.0;"/><text fill="#000000" font-family="sans-serif" font-size="14" lengthAdjust="spacing" textLength="79" x="248" y="84.9951">accountList</text><path d="M270,44 L270,68 M270,56 L287,56 " fill="none" filter="url(#f124wx76p7he9)" style="stroke:#A80036;stroke-width:2.0;"/><ellipse cx="299" cy="56" fill="#FEFECE" filter="url(#f124wx76p7he9)" rx="12" ry="12" style="stroke:#A80036;stroke-width:2.0;"/><text fill="#000000" font-family="sans-serif" font-size="14" lengthAdjust="spacing" textLength="79" x="248" y="941.2139">accountList</text><path d="M270,948.5156 L270,972.5156 M270,960.5156 L287,960.5156 " fill="none" filter="url(#f124wx76p7he9)" style="stroke:#A80036;stroke-width:2.0;"/><ellipse cx="299" cy="960.5156" fill="#FEFECE" filter="url(#f124wx76p7he9)" rx="12" ry="12" style="stroke:#A80036;stroke-width:2.0;"/><text fill="#000000" font-family="sans-serif" font-size="14" lengthAdjust="spacing" textLength="74" x="343" y="84.9951">sourceBox</text><path d="M362.5,44 L362.5,68 M362.5,56 L379.5,56 " fill="none" filter="url(#f124wx76p7he9)" style="stroke:#A80036;stroke-width:2.0;"/><ellipse cx="391.5" cy="56" fill="#FEFECE" filter="url(#f124wx76p7he9)" rx="12" ry="12" style="stroke:#A80036;stroke-width:2.0;"/><text fill="#000000" font-family="sans-serif" font-size="14" lengthAdjust="spacing" textLength="74" x="343" y="941.2139">sourceBox</text><path d="M362.5,948.5156 L362.5,972.5156 M362.5,960.5156 L379.5,960.5156 " fill="none" filter="url(#f124wx76p7he9)" style="stroke:#A80036;stroke-width:2.0;"/><ellipse cx="391.5" cy="960.5156" fill="#FEFECE" filter="url(#f124wx76p7he9)" rx="12" ry="12" style="stroke:#A80036;stroke-width:2.0;"/><text fill="#000000" font-family="sans-serif" font-size="14" lengthAdjust="spacing" textLength="73" x="433" y="84.9951">targetField</text><path d="M452,44 L452,68 M452,56 L469,56 " fill="none" filter="url(#f124wx76p7he9)" style="stroke:#A80036;stroke-width:2.0;"/><ellipse cx="481" cy="56" fill="#FEFECE" filter="url(#f124wx76p7he9)" rx="12" ry="12" style="stroke:#A80036;stroke-width:2.0;"/><text fill="#000000" font-family="sans-serif" font-size="14" lengthAdjust="spacing" textLength="73" x="433" y="941.2139">targetField</text><path d="M452,948.5156 L452,972.5156 M452,960.5156 L469,960.5156 " fill="none" filter="url(#f124wx76p7he9)" style="stroke:#A80036;stroke-width:2.0;"/><ellipse cx="481" cy="960.5156" fill="#FEFECE" filter="url(#f124wx76p7he9)" rx="12" ry="12" style="stroke:#A80036;stroke-width:2.0;"/><text fill="#000000" font-family="sans-serif" font-size="14" lengthAdjust="spacing" textLength="85" x="522" y="84.9951">amountField</text><path d="M547,44 L547,68 M547,56 L564,56 " fill="none" filter="url(#f124wx76p7he9)" style="stroke:#A80036;stroke-width:2.0;"/><ellipse cx="576" cy="56" fill="#FEFECE" filter="url(#f124wx76p7he9)" rx="12" ry="12" style="stroke:#A80036;stroke-width:2.0;"/><text fill="#000000" font-family="sans-serif" font-size="14" lengthAdjust="spacing" textLength="85" x="522" y="941.2139">amountField</text><path d="M547,948.5156 L547,972.5156 M547,960.5156 L564,960.5156 " fill="none" filter="url(#f124wx76p7he9)" style="stroke:#A80036;stroke-width:2.0;"/><ellipse cx="576" cy="960.5156" fill="#FEFECE" filter="url(#f124wx76p7he9)" rx="12" ry="12" style="stroke:#A80036;stroke-width:2.0;"/><text fill="#000000" font-family="sans-serif" font-size="14" lengthAdjust="spacing" textLength="98" x="623" y="84.9951">confirmButton</text><path d="M654.5,44 L654.5,68 M654.5,56 L671.5,56 " fill="none" filter="url(#f124wx76p7he9)" style="stroke:#A80036;stroke-width:2.0;"/><ellipse cx="683.5" cy="56" fill="#FEFECE" filter="url(#f124wx76p7he9)" rx="12" ry="12" style="stroke:#A80036;stroke-width:2.0;"/><text fill="#000000" font-family="sans-serif" font-size="14" lengthAdjust="spacing" textLength="98" x="623" y="941.2139">confirmButton</text><path d="M654.5,948.5156 L654.5,972.5156 M654.5,960.5156 L671.5,960.5156 " fill="none" filter="url(#f124wx76p7he9)" style="stroke:#A80036;stroke-width:2.0;"/><ellipse cx="683.5" cy="960.5156" fill="#FEFECE" filter="url(#f124wx76p7he9)" rx="12" ry="12" style="stroke:#A80036;stroke-width:2.0;"/><text fill="#000000" font-family="sans-serif" font-size="14" lengthAdjust="spacing" textLength="129" x="737" y="84.9951">OverviewController</text><ellipse cx="804.5" cy="56" fill="#FEFECE" filter="url(#f124wx76p7he9)" rx="12" ry="12" style="stroke:#A80036;stroke-width:2.0;"/><polygon fill="#A80036" points="800.5,44,806.5,39,804.5,44,806.5,49,800.5,44" style="stroke:#A80036;stroke-width:1.0;"/><text fill="#000000" font-family="sans-serif" font-size="14" lengthAdjust="spacing" textLength="129" x="737" y="941.2139">OverviewController</text><ellipse cx="804.5" cy="960.5156" fill="#FEFECE" filter="url(#f124wx76p7he9)" rx="12" ry="12" style="stroke:#A80036;stroke-width:2.0;"/><polygon fill="#A80036" points="800.5,948.5156,806.5,943.5156,804.5,948.5156,806.5,953.5156,800.5,948.5156" style="stroke:#A80036;stroke-width:1.0;"/><text fill="#000000" font-family="sans-serif" font-size="14" lengthAdjust="spacing" textLength="127" x="882" y="84.9951">PaymentController</text><ellipse cx="948.5" cy="56" fill="#FEFECE" filter="url(#f124wx76p7he9)" rx="12" ry="12" style="stroke:#A80036;stroke-width:2.0;"/><polygon fill="#A80036" points="944.5,44,950.5,39,948.5,44,950.5,49,944.5,44" style="stroke:#A80036;stroke-width:1.0;"/><text fill="#000000" font-family="sans-serif" font-size="14" lengthAdjust="spacing" textLength="127" x="882" y="941.2139">PaymentController</text><ellipse cx="948.5" cy="960.5156" fill="#FEFECE" filter="url(#f124wx76p7he9)" rx="12" ry="12" style="stroke:#A80036;stroke-width:2.0;"/><polygon fill="#A80036" points="944.5,948.5156,950.5,943.5156,948.5,948.5156,950.5,953.5156,944.5,948.5156" style="stroke:#A80036;stroke-width:1.0;"/><text fill="#000000" font-family="sans-serif" font-size="14" lengthAdjust="spacing" textLength="82" x="1081.5" y="84.9951">UserAccess</text><ellipse cx="1125.5" cy="56" fill="#FEFECE" filter="url(#f124wx76p7he9)" rx="12" ry="12" style="stroke:#A80036;stroke-width:2.0;"/><polygon fill="#A80036" points="1121.5,44,1127.5,39,1125.5,44,1127.5,49,1121.5,44" style="stroke:#A80036;stroke-width:1.0;"/><text fill="#000000" font-family="sans-serif" font-size="14" lengthAdjust="spacing" textLength="82" x="1081.5" y="941.2139">UserAccess</text><ellipse cx="1125.5" cy="960.5156" fill="#FEFECE" filter="url(#f124wx76p7he9)" rx="12" ry="12" style="stroke:#A80036;stroke-width:2.0;"/><polygon fill="#A80036" points="1121.5,948.5156,1127.5,943.5156,1125.5,948.5156,1127.5,953.5156,1121.5,948.5156" style="stroke:#A80036;stroke-width:1.0;"/><text fill="#000000" font-family="sans-serif" font-size="14" lengthAdjust="spacing" textLength="53" x="1313" y="84.9951">RestAPI</text><path d="M1322,44 L1322,68 M1322,56 L1339,56 " fill="none" filter="url(#f124wx76p7he9)" style="stroke:#A80036;stroke-width:2.0;"/><ellipse cx="1351" cy="56" fill="#FEFECE" filter="url(#f124wx76p7he9)" rx="12" ry="12" style="stroke:#A80036;stroke-width:2.0;"/><text fill="#000000" font-family="sans-serif" font-size="14" lengthAdjust="spacing" textLength="53" x="1313" y="941.2139">RestAPI</text><path d="M1322,948.5156 L1322,972.5156 M1322,960.5156 L1339,960.5156 " fill="none" filter="url(#f124wx76p7he9)" style="stroke:#A80036;stroke-width:2.0;"/><ellipse cx="1351" cy="960.5156" fill="#FEFECE" filter="url(#f124wx76p7he9)" rx="12" ry="12" style="stroke:#A80036;stroke-width:2.0;"/><text fill="#000000" font-family="sans-serif" font-size="14" lengthAdjust="spacing" textLength="35" x="1499" y="84.9951">Bank</text><ellipse cx="1519.5" cy="56" fill="#FEFECE" filter="url(#f124wx76p7he9)" rx="12" ry="12" style="stroke:#A80036;stroke-width:2.0;"/><line style="stroke:#A80036;stroke-width:2.0;" x1="1507.5" x2="1531.5" y1="70" y2="70"/><text fill="#000000" font-family="sans-serif" font-size="14" lengthAdjust="spacing" textLength="35" x="1499" y="941.2139">Bank</text><ellipse cx="1519.5" cy="960.5156" fill="#FEFECE" filter="url(#f124wx76p7he9)" rx="12" ry="12" style="stroke:#A80036;stroke-width:2.0;"/><line style="stroke:#A80036;stroke-width:2.0;" x1="1507.5" x2="1531.5" y1="974.5156" y2="974.5156"/><text fill="#000000" font-family="sans-serif" font-size="14" lengthAdjust="spacing" textLength="48" x="1631.5" y="84.9951">source</text><ellipse cx="1658.5" cy="56" fill="#FEFECE" filter="url(#f124wx76p7he9)" rx="12" ry="12" style="stroke:#A80036;stroke-width:2.0;"/><line style="stroke:#A80036;stroke-width:2.0;" x1="1646.5" x2="1670.5" y1="70" y2="70"/><text fill="#000000" font-family="sans-serif" font-size="14" lengthAdjust="spacing" textLength="48" x="1631.5" y="941.2139">source</text><ellipse cx="1658.5" cy="960.5156" fill="#FEFECE" filter="url(#f124wx76p7he9)" rx="12" ry="12" style="stroke:#A80036;stroke-width:2.0;"/><line style="stroke:#A80036;stroke-width:2.0;" x1="1646.5" x2="1670.5" y1="974.5156" y2="974.5156"/><text fill="#000000" font-family="sans-serif" font-size="14" lengthAdjust="spacing" textLength="41" x="1695.5" y="84.9951">target</text><ellipse cx="1719" cy="56" fill="#FEFECE" filter="url(#f124wx76p7he9)" rx="12" ry="12" style="stroke:#A80036;stroke-width:2.0;"/><line style="stroke:#A80036;stroke-width:2.0;" x1="1707" x2="1731" y1="70" y2="70"/><text fill="#000000" font-family="sans-serif" font-size="14" lengthAdjust="spacing" textLength="41" x="1695.5" y="941.2139">target</text><ellipse cx="1719" cy="960.5156" fill="#FEFECE" filter="url(#f124wx76p7he9)" rx="12" ry="12" style="stroke:#A80036;stroke-width:2.0;"/><line style="stroke:#A80036;stroke-width:2.0;" x1="1707" x2="1731" y1="974.5156" y2="974.5156"/><polygon fill="#A80036" points="371,115.4297,381,119.4297,371,123.4297,375,119.4297" style="stroke:#A80036;stroke-width:1.0;"/><line style="stroke:#A80036;stroke-width:1.0;" x1="39" x2="377" y1="119.4297" y2="119.4297"/><text fill="#000000" font-family="sans-serif" font-size="13" lengthAdjust="spacing" textLength="92" x="46" y="114.3638">selects source</text><polygon fill="#A80036" points="460.5,144.5625,470.5,148.5625,460.5,152.5625,464.5,148.5625" style="stroke:#A80036;stroke-width:1.0;"/><line style="stroke:#A80036;stroke-width:1.0;" x1="39" x2="466.5" y1="148.5625" y2="148.5625"/><text fill="#000000" font-family="sans-serif" font-size="13" lengthAdjust="spacing" textLength="82" x="46" y="143.4966">inputs target</text><polygon fill="#A80036" points="555.5,173.6953,565.5,177.6953,555.5,181.6953,559.5,177.6953" style="stroke:#A80036;stroke-width:1.0;"/><line style="stroke:#A80036;stroke-width:1.0;" x1="39" x2="561.5" y1="177.6953" y2="177.6953"/><text fill="#000000" font-family="sans-serif" font-size="13" lengthAdjust="spacing" textLength="93" x="46" y="172.6294">inputs amount</text><polygon fill="#A80036" points="663,202.8281,673,206.8281,663,210.8281,667,206.8281" style="stroke:#A80036;stroke-width:1.0;"/><line style="stroke:#A80036;stroke-width:1.0;" x1="39" x2="669" y1="206.8281" y2="206.8281"/><text fill="#000000" font-family="sans-serif" font-size="13" lengthAdjust="spacing" textLength="34" x="46" y="201.7622">clicks</text><polygon fill="#A80036" points="936.5,231.9609,946.5,235.9609,936.5,239.9609,940.5,235.9609" style="stroke:#A80036;stroke-width:1.0;"/><line style="stroke:#A80036;stroke-width:1.0;" x1="675" x2="942.5" y1="235.9609" y2="235.9609"/><text fill="#000000" font-family="sans-serif" font-size="13" lengthAdjust="spacing" textLength="110" x="682" y="230.895">handlePayment()</text><polygon fill="#A80036" points="394,261.0938,384,265.0938,394,269.0938,390,265.0938" style="stroke:#A80036;stroke-width:1.0;"/><line style="stroke:#A80036;stroke-width:1.0;" x1="388" x2="947.5" y1="265.0938" y2="265.0938"/><text fill="#000000" font-family="sans-serif" font-size="13" lengthAdjust="spacing" textLength="67" x="400" y="260.0278">getValue()</text><polygon fill="#A80036" points="483.5,290.2266,473.5,294.2266,483.5,298.2266,479.5,294.2266" style="stroke:#A80036;stroke-width:1.0;"/><line style="stroke:#A80036;stroke-width:1.0;" x1="477.5" x2="947.5" y1="294.2266" y2="294.2266"/><text fill="#000000" font-family="sans-serif" font-size="13" lengthAdjust="spacing" textLength="58" x="489.5" y="289.1606">getText()</text><polygon fill="#A80036" points="578.5,319.3594,568.5,323.3594,578.5,327.3594,574.5,323.3594" style="stroke:#A80036;stroke-width:1.0;"/><line style="stroke:#A80036;stroke-width:1.0;" x1="572.5" x2="947.5" y1="323.3594" y2="323.3594"/><text fill="#000000" font-family="sans-serif" font-size="13" lengthAdjust="spacing" textLength="58" x="584.5" y="318.2935">getText()</text><polygon fill="#A80036" points="1113.5,363.625,1123.5,367.625,1113.5,371.625,1117.5,367.625" style="stroke:#A80036;stroke-width:1.0;"/><line style="stroke:#A80036;stroke-width:1.0;" x1="948.5" x2="1119.5" y1="367.625" y2="367.625"/><text fill="#000000" font-family="sans-serif" font-size="13" lengthAdjust="spacing" textLength="114" x="955.5" y="347.4263">paymentRequest(</text><text fill="#000000" font-family="sans-serif" font-size="13" lengthAdjust="spacing" textLength="153" x="955.5" y="362.5591">source, target, amount)</text><polygon fill="#A80036" points="1330.5,453.2891,1340.5,457.2891,1330.5,461.2891,1334.5,457.2891" style="stroke:#A80036;stroke-width:1.0;"/><line style="stroke:#A80036;stroke-width:1.0;" x1="1125.5" x2="1336.5" y1="457.2891" y2="457.2891"/><text fill="#000000" font-family="sans-serif" font-size="13" lengthAdjust="spacing" textLength="156" x="1132.5" y="391.6919">POST bank/users/{user}</text><text fill="#000000" font-family="sans-serif" font-size="13" lengthAdjust="spacing" textLength="193" x="1132.5" y="406.8247">/accounts/{source}/payment?</text><text fill="#000000" font-family="sans-serif" font-size="13" lengthAdjust="spacing" textLength="147" x="1132.5" y="421.9575">password={password}</text><text fill="#000000" font-family="sans-serif" font-size="13" lengthAdjust="spacing" textLength="168" x="1132.5" y="437.0903">&amp;targetAccount={target}</text><text fill="#000000" font-family="sans-serif" font-size="13" lengthAdjust="spacing" textLength="138" x="1132.5" y="452.2231">&amp;amount={amount}</text><polygon fill="#A80036" points="1507.5,497.5547,1517.5,501.5547,1507.5,505.5547,1511.5,501.5547" style="stroke:#A80036;stroke-width:1.0;"/><line style="stroke:#A80036;stroke-width:1.0;" x1="1342.5" x2="1513.5" y1="501.5547" y2="501.5547"/><text fill="#000000" font-family="sans-serif" font-size="13" lengthAdjust="spacing" textLength="94" x="1349.5" y="481.356">payment(user,</text><text fill="#000000" font-family="sans-serif" font-size="13" lengthAdjust="spacing" textLength="153" x="1349.5" y="496.4888">source, target, amount)</text><polygon fill="#A80036" points="1646.5,526.6875,1656.5,530.6875,1646.5,534.6875,1650.5,530.6875" style="stroke:#A80036;stroke-width:1.0;"/><line style="stroke:#A80036;stroke-width:1.0;" x1="1519.5" x2="1652.5" y1="530.6875" y2="530.6875"/><text fill="#000000" font-family="sans-serif" font-size="13" lengthAdjust="spacing" textLength="115" x="1526.5" y="525.6216">withdraw(amount)</text><polygon fill="#A80036" points="1707,555.8203,1717,559.8203,1707,563.8203,1711,559.8203" style="stroke:#A80036;stroke-width:1.0;"/><line style="stroke:#A80036;stroke-width:1.0;" x1="1519.5" x2="1713" y1="559.8203" y2="559.8203"/><text fill="#000000" font-family="sans-serif" font-size="13" lengthAdjust="spacing" textLength="107" x="1526.5" y="554.7544">deposit(amount)</text><path d="M10,574.8203 L74,574.8203 L74,581.8203 L64,591.8203 L10,591.8203 L10,574.8203 " fill="#EEEEEE" style="stroke:#000000;stroke-width:1.0;"/><rect fill="none" height="337.3984" style="stroke:#000000;stroke-width:2.0;" width="1372" x="10" y="574.8203"/><text fill="#000000" font-family="sans-serif" font-size="13" font-weight="bold" lengthAdjust="spacing" textLength="19" x="25" y="587.8872">alt</text><text fill="#000000" font-family="sans-serif" font-size="11" font-weight="bold" lengthAdjust="spacing" textLength="162" x="89" y="587.0308">[Failed payment request]</text><polygon fill="#A80036" points="1136.5,624.2188,1126.5,628.2188,1136.5,632.2188,1132.5,628.2188" style="stroke:#A80036;stroke-width:1.0;"/><line style="stroke:#A80036;stroke-width:1.0;" x1="1130.5" x2="1341.5" y1="628.2188" y2="628.2188"/><text fill="#000000" font-family="sans-serif" font-size="13" lengthAdjust="spacing" textLength="137" x="1142.5" y="608.02">Response not 200 OK</text><text fill="#000000" font-family="sans-serif" font-size="13" lengthAdjust="spacing" textLength="146" x="1142.5" y="623.1528">when exception thrown</text><line style="stroke:#A80036;stroke-width:1.0;" x1="948.5" x2="990.5" y1="657.3516" y2="657.3516"/><line style="stroke:#A80036;stroke-width:1.0;" x1="990.5" x2="990.5" y1="657.3516" y2="670.3516"/><line style="stroke:#A80036;stroke-width:1.0;" x1="949.5" x2="990.5" y1="670.3516" y2="670.3516"/><polygon fill="#A80036" points="959.5,666.3516,949.5,670.3516,959.5,674.3516,955.5,670.3516" style="stroke:#A80036;stroke-width:1.0;"/><text fill="#000000" font-family="sans-serif" font-size="13" lengthAdjust="spacing" textLength="73" x="955.5" y="652.2856">showError()</text><polygon fill="#A80036" points="206,695.4844,196,699.4844,206,703.4844,202,699.4844" style="stroke:#A80036;stroke-width:1.0;"/><line style="stroke:#A80036;stroke-width:1.0;" x1="200" x2="947.5" y1="699.4844" y2="699.4844"/><text fill="#000000" font-family="sans-serif" font-size="13" lengthAdjust="spacing" textLength="116" x="212" y="694.4185">setText(message)</text><polygon fill="#A80036" points="206,724.6172,196,728.6172,206,732.6172,202,728.6172" style="stroke:#A80036;stroke-width:1.0;"/><line style="stroke:#A80036;stroke-width:1.0;" x1="200" x2="947.5" y1="728.6172" y2="728.6172"/><text fill="#000000" font-family="sans-serif" font-size="13" lengthAdjust="spacing" textLength="97" x="212" y="723.5513">setVisible(true)</text><polygon fill="#A80036" points="50,753.75,40,757.75,50,761.75,46,757.75" style="stroke:#A80036;stroke-width:1.0;"/><line style="stroke:#A80036;stroke-width:1.0;" x1="44" x2="194" y1="757.75" y2="757.75"/><text fill="#000000" font-family="sans-serif" font-size="13" lengthAdjust="spacing" textLength="132" x="56" y="752.6841">views error message</text><line style="stroke:#000000;stroke-width:1.0;stroke-dasharray:2.0,2.0;" x1="10" x2="1382" y1="766.75" y2="766.75"/><text fill="#000000" font-family="sans-serif" font-size="11" font-weight="bold" lengthAdjust="spacing" textLength="191" x="15" y="776.9604">[Successful payment request]</text><polygon fill="#A80036" points="1136.5,812.8203,1126.5,816.8203,1136.5,820.8203,1132.5,816.8203" style="stroke:#A80036;stroke-width:1.0;"/><line style="stroke:#A80036;stroke-width:1.0;" x1="1130.5" x2="1341.5" y1="816.8203" y2="816.8203"/><text fill="#000000" font-family="sans-serif" font-size="13" lengthAdjust="spacing" textLength="112" x="1142.5" y="796.6216">Response 200 OK</text><text fill="#000000" font-family="sans-serif" font-size="13" lengthAdjust="spacing" textLength="166" x="1142.5" y="811.7544">when no exception thrown</text><polygon fill="#A80036" points="815.5,841.9531,805.5,845.9531,815.5,849.9531,811.5,845.9531" style="stroke:#A80036;stroke-width:1.0;"/><line style="stroke:#A80036;stroke-width:1.0;" x1="809.5" x2="947.5" y1="845.9531" y2="845.9531"/><text fill="#000000" font-family="sans-serif" font-size="13" lengthAdjust="spacing" textLength="55" x="821.5" y="840.8872">update()</text><polygon fill="#A80036" points="301.5,871.0859,291.5,875.0859,301.5,879.0859,297.5,875.0859" style="stroke:#A80036;stroke-width:1.0;"/><line style="stroke:#A80036;stroke-width:1.0;" x1="295.5" x2="803.5" y1="875.0859" y2="875.0859"/><text fill="#000000" font-family="sans-serif" font-size="13" lengthAdjust="spacing" textLength="67" x="307.5" y="870.02">update list</text><polygon fill="#A80036" points="50,900.2188,40,904.2188,50,908.2188,46,904.2188" style="stroke:#A80036;stroke-width:1.0;"/><line style="stroke:#A80036;stroke-width:1.0;" x1="44" x2="289.5" y1="904.2188" y2="904.2188"/><text fill="#000000" font-family="sans-serif" font-size="13" lengthAdjust="spacing" textLength="113" x="56" y="899.1528">views updated list</text><!--MD5=[7a76041f807e564d1dc3299536168321]
@startuml payment
actor User
boundary errorButton
boundary accountList
boundary sourceBox
boundary targetField
boundary amountField
boundary confirmButton
control OverviewController
control PaymentController
control UserAccess
boundary RestAPI
entity Bank
entity source
entity target

User -> sourceBox : selects source
User -> targetField : inputs target
User -> amountField : inputs amount
User -> confirmButton : clicks

confirmButton -> PaymentController : handlePayment()
PaymentController -> sourceBox : getValue()
PaymentController -> targetField : getText()
PaymentController -> amountField : getText()
PaymentController -> UserAccess : paymentRequest(\nsource, target, amount)
UserAccess -> RestAPI : POST bank/users/{user}\n/accounts/{source}/payment?\npassword={password}\n&targetAccount={target}\n&amount={amount}
RestAPI -> Bank: payment(user, \nsource, target, amount)
Bank -> source : withdraw(amount)
Bank -> target : deposit(amount)

alt Failed payment request
    RestAPI -> UserAccess : Response not 200 OK\nwhen exception thrown
    PaymentController -> PaymentController: showError()
    PaymentController -> errorButton: setText(message)
    PaymentController -> errorButton: setVisible(true)
    errorButton -> User : views error message
else Successful payment request
    RestAPI -> UserAccess : Response 200 OK\nwhen no exception thrown
    PaymentController -> OverviewController : update()
    OverviewController -> accountList : update list
    accountList -> User : views updated list
    
end
@enduml

PlantUML version 1.2021.00(Sun Jan 10 10:25:05 GMT 2021)
(MIT source distribution)
Java Runtime: OpenJDK Runtime Environment
JVM: OpenJDK 64-Bit Server VM
Default Encoding: UTF-8
Language: en
Country: null
--></g></svg>