<?xml version="1.0" encoding="us-ascii" standalone="no"?><svg xmlns="http://www.w3.org/2000/svg" xmlns:xlink="http://www.w3.org/1999/xlink" contentStyleType="text/css" height="584px" preserveAspectRatio="none" style="width:1441px;height:584px;background:#FFFFFF;" version="1.1" viewBox="0 0 1441 584" width="1441px" zoomAndPan="magnify"><defs/><g><rect fill="none" height="294.8359" style="stroke:#000000;stroke-width:1.5;" width="1162.5" x="272" y="160.3125"/><rect fill="none" height="185.9453" style="stroke:#000000;stroke-width:1.5;" width="1142.5" x="282" y="262.2031"/><line style="stroke:#181818;stroke-width:0.5;stroke-dasharray:5.0,5.0;" x1="29" x2="29" y1="82.6094" y2="502.5"/><line style="stroke:#181818;stroke-width:0.5;stroke-dasharray:5.0,5.0;" x1="305" x2="305" y1="82.6094" y2="502.5"/><line style="stroke:#181818;stroke-width:0.5;stroke-dasharray:5.0,5.0;" x1="584.5" x2="584.5" y1="82.6094" y2="502.5"/><line style="stroke:#181818;stroke-width:0.5;stroke-dasharray:5.0,5.0;" x1="1057.5" x2="1057.5" y1="82.6094" y2="502.5"/><line style="stroke:#181818;stroke-width:0.5;stroke-dasharray:5.0,5.0;" x1="1391.5" x2="1391.5" y1="82.6094" y2="502.5"/><text fill="#000000" font-family="sans-serif" font-size="14" lengthAdjust="spacing" textLength="42" x="5" y="79.5332">Bruker</text><ellipse cx="29" cy="13.5" fill="#E2E2F0" rx="8" ry="8" style="stroke:#181818;stroke-width:0.5;"/><path d="M29,21.5 L29,48.5 M16,29.5 L42,29.5 M29,48.5 L16,63.5 M29,48.5 L42,63.5 " fill="none" style="stroke:#181818;stroke-width:0.5;"/><text fill="#000000" font-family="sans-serif" font-size="14" lengthAdjust="spacing" textLength="42" x="5" y="516.0332">Bruker</text><ellipse cx="29" cy="527.6094" fill="#E2E2F0" rx="8" ry="8" style="stroke:#181818;stroke-width:0.5;"/><path d="M29,535.6094 L29,562.6094 M16,543.6094 L42,543.6094 M29,562.6094 L16,577.6094 M29,562.6094 L42,577.6094 " fill="none" style="stroke:#181818;stroke-width:0.5;"/><rect fill="#E2E2F0" height="31.6094" rx="2.5" ry="2.5" style="stroke:#181818;stroke-width:0.5;" width="26" x="292" y="50"/><text fill="#000000" font-family="sans-serif" font-size="14" lengthAdjust="spacing" textLength="12" x="299" y="71.5332">Ui</text><rect fill="#E2E2F0" height="31.6094" rx="2.5" ry="2.5" style="stroke:#181818;stroke-width:0.5;" width="26" x="292" y="501.5"/><text fill="#000000" font-family="sans-serif" font-size="14" lengthAdjust="spacing" textLength="12" x="299" y="523.0332">Ui</text><rect fill="#E2E2F0" height="31.6094" rx="2.5" ry="2.5" style="stroke:#181818;stroke-width:0.5;" width="131" x="519.5" y="50"/><text fill="#000000" font-family="sans-serif" font-size="14" lengthAdjust="spacing" textLength="117" x="526.5" y="71.5332">PaymentController</text><rect fill="#E2E2F0" height="31.6094" rx="2.5" ry="2.5" style="stroke:#181818;stroke-width:0.5;" width="131" x="519.5" y="501.5"/><text fill="#000000" font-family="sans-serif" font-size="14" lengthAdjust="spacing" textLength="117" x="526.5" y="523.0332">PaymentController</text><rect fill="#E2E2F0" height="31.6094" rx="2.5" ry="2.5" style="stroke:#181818;stroke-width:0.5;" width="43" x="1036.5" y="50"/><text fill="#000000" font-family="sans-serif" font-size="14" lengthAdjust="spacing" textLength="29" x="1043.5" y="71.5332">Rest</text><rect fill="#E2E2F0" height="31.6094" rx="2.5" ry="2.5" style="stroke:#181818;stroke-width:0.5;" width="43" x="1036.5" y="501.5"/><text fill="#000000" font-family="sans-serif" font-size="14" lengthAdjust="spacing" textLength="29" x="1043.5" y="523.0332">Rest</text><rect fill="#E2E2F0" height="31.6094" rx="2.5" ry="2.5" style="stroke:#181818;stroke-width:0.5;" width="45" x="1369.5" y="50"/><text fill="#000000" font-family="sans-serif" font-size="14" lengthAdjust="spacing" textLength="31" x="1376.5" y="71.5332">Core</text><rect fill="#E2E2F0" height="31.6094" rx="2.5" ry="2.5" style="stroke:#181818;stroke-width:0.5;" width="45" x="1369.5" y="501.5"/><text fill="#000000" font-family="sans-serif" font-size="14" lengthAdjust="spacing" textLength="31" x="1376.5" y="523.0332">Core</text><polygon fill="#181818" points="293,110.9609,303,114.9609,293,118.9609,297,114.9609" style="stroke:#181818;stroke-width:1.0;"/><line style="stroke:#181818;stroke-width:1.0;" x1="29" x2="299" y1="114.9609" y2="114.9609"/><text fill="#000000" font-family="sans-serif" font-size="13" lengthAdjust="spacing" textLength="222" x="36" y="110.1045">Velger konto og bel&#248;p, trykker Confirm</text><polygon fill="#181818" points="573,141.3125,583,145.3125,573,149.3125,577,145.3125" style="stroke:#181818;stroke-width:1.0;"/><line style="stroke:#181818;stroke-width:1.0;" x1="305" x2="579" y1="145.3125" y2="145.3125"/><text fill="#000000" font-family="sans-serif" font-size="13" lengthAdjust="spacing" textLength="256" x="312" y="140.4561">handlePayment(konto, kontonummer, bel&#248;p)</text><path d="M272,160.3125 L333,160.3125 L333,168.6641 L323,178.6641 L272,178.6641 L272,160.3125 " fill="#EEEEEE" style="stroke:#000000;stroke-width:1.5;"/><rect fill="none" height="294.8359" style="stroke:#000000;stroke-width:1.5;" width="1162.5" x="272" y="160.3125"/><text fill="#000000" font-family="sans-serif" font-size="13" font-weight="bold" lengthAdjust="spacing" textLength="16" x="287" y="174.8076">alt</text><text fill="#000000" font-family="sans-serif" font-size="11" font-weight="bold" lengthAdjust="spacing" textLength="124" x="348" y="173.7314">[Input validering feilet]</text><polygon fill="#181818" points="316,197.0156,306,201.0156,316,205.0156,312,201.0156" style="stroke:#181818;stroke-width:1.0;"/><line style="stroke:#181818;stroke-width:1.0;" x1="310" x2="584" y1="201.0156" y2="201.0156"/><text fill="#000000" font-family="sans-serif" font-size="13" lengthAdjust="spacing" textLength="98" x="322" y="196.1592">kaster Exception</text><line style="stroke:#000000;stroke-width:1.0;stroke-dasharray:2.0,2.0;" x1="272" x2="1434.5" y1="210.0156" y2="210.0156"/><text fill="#000000" font-family="sans-serif" font-size="11" font-weight="bold" lengthAdjust="spacing" textLength="145" x="277" y="221.4346">[Input validering godkjent]</text><polygon fill="#181818" points="1046,243.2031,1056,247.2031,1046,251.2031,1050,247.2031" style="stroke:#181818;stroke-width:1.0;"/><line style="stroke:#181818;stroke-width:1.0;" x1="585" x2="1052" y1="247.2031" y2="247.2031"/><text fill="#000000" font-family="sans-serif" font-size="13" lengthAdjust="spacing" textLength="449" x="592" y="242.3467">sendPaymentRequest(AvsenderKontonummer, MottakerKontonummer, bel&#248;p)</text><path d="M282,262.2031 L343,262.2031 L343,270.5547 L333,280.5547 L282,280.5547 L282,262.2031 " fill="#EEEEEE" style="stroke:#000000;stroke-width:1.5;"/><rect fill="none" height="185.9453" style="stroke:#000000;stroke-width:1.5;" width="1142.5" x="282" y="262.2031"/><text fill="#000000" font-family="sans-serif" font-size="13" font-weight="bold" lengthAdjust="spacing" textLength="16" x="297" y="276.6982">alt</text><text fill="#000000" font-family="sans-serif" font-size="11" font-weight="bold" lengthAdjust="spacing" textLength="118" x="358" y="275.6221">[Brukervalidert feilet]</text><polygon fill="#181818" points="316,298.9063,306,302.9063,316,306.9063,312,302.9063" style="stroke:#181818;stroke-width:1.0;"/><line style="stroke:#181818;stroke-width:1.0;" x1="310" x2="1057" y1="302.9063" y2="302.9063"/><text fill="#000000" font-family="sans-serif" font-size="13" lengthAdjust="spacing" textLength="98" x="322" y="298.0498">kaster Exception</text><line style="stroke:#000000;stroke-width:1.0;stroke-dasharray:2.0,2.0;" x1="282" x2="1424.5" y1="311.9063" y2="311.9063"/><text fill="#000000" font-family="sans-serif" font-size="11" font-weight="bold" lengthAdjust="spacing" textLength="139" x="287" y="323.3252">[Brukervalidert godkjent]</text><polygon fill="#181818" points="1380,345.0938,1390,349.0938,1380,353.0938,1384,349.0938" style="stroke:#181818;stroke-width:1.0;"/><line style="stroke:#181818;stroke-width:1.0;" x1="1058" x2="1386" y1="349.0938" y2="349.0938"/><text fill="#000000" font-family="sans-serif" font-size="13" lengthAdjust="spacing" textLength="310" x="1065" y="344.2373">payment(user, AvsenderKonto, MottakerKonto, bel&#248;p)</text><polygon fill="#181818" points="1069,375.4453,1059,379.4453,1069,383.4453,1065,379.4453" style="stroke:#181818;stroke-width:1.0;"/><line style="stroke:#181818;stroke-width:1.0;" x1="1063" x2="1391" y1="379.4453" y2="379.4453"/><text fill="#000000" font-family="sans-serif" font-size="13" lengthAdjust="spacing" textLength="190" x="1075" y="374.5889">bekreftelse p&#229; fullf&#248;rt transaksjon</text><polygon fill="#181818" points="596,405.7969,586,409.7969,596,413.7969,592,409.7969" style="stroke:#181818;stroke-width:1.0;"/><line style="stroke:#181818;stroke-width:1.0;" x1="590" x2="1057" y1="409.7969" y2="409.7969"/><text fill="#000000" font-family="sans-serif" font-size="13" lengthAdjust="spacing" textLength="63" x="602" y="404.9404">bekreftelse</text><polygon fill="#181818" points="316,436.1484,306,440.1484,316,444.1484,312,440.1484" style="stroke:#181818;stroke-width:1.0;"/><line style="stroke:#181818;stroke-width:1.0;" x1="310" x2="584" y1="440.1484" y2="440.1484"/><text fill="#000000" font-family="sans-serif" font-size="13" lengthAdjust="spacing" textLength="97" x="322" y="435.292">Fullf&#248;rt overf&#248;ring</text><polygon fill="#181818" points="40,480.5,30,484.5,40,488.5,36,484.5" style="stroke:#181818;stroke-width:1.0;"/><line style="stroke:#181818;stroke-width:1.0;" x1="34" x2="304" y1="484.5" y2="484.5"/><text fill="#000000" font-family="sans-serif" font-size="13" lengthAdjust="spacing" textLength="252" x="46" y="479.6436">Tilbake til hjem-skjerm med oppdatert saldo</text><!--SRC=[TPB1JiCm38RlUGeVGTfUO0Sac41220bDm3rRt2vBceJ4dTW3yGwxxyLmkcoq7OlKgd7Sp__lMAx8HtY8hS4eWeoaLpf8H_2X1zitkMlGqTmxYjxQKV824mq2SnzHY2CMfdTCWnbyegrvQvZXmTUmH7lOXmbGt9cSn_1AnqPmClzoKP49Q-cKnN9oqu4cHvvhcmRZf31lXP2MuDc5bc0hhLOOjQkXGcsH1F2wn9za6fc8ju_VAmoalHDe4rwoQg_CXWdNQRahp4leL3bVu5VBmPlxRGvYVEbBV_L4qeo29p-vIFVAlevzBLgexoglhknLCpcZCpI23EpqCVag6HHAqzkKPGqCZAGFHUVL8VuQiaGJiQ9EHJZyGDLQMntsB8AYT4cQj2b2-ph-cuSUwPn__MAVpdNy5cF-udiyDiGfaPyoUcLkP_2kxP9z0MaBwmqsqyGzYWqqgC27e2JbrYLfbVy5]--></g></svg>